<svg preserveAspectRatio="none" width="235" height="76" fill="none" xmlns="http://www.w3.org/2000/svg"><path d="M70.08 60c-.427 0-.81-.15-1.152-.448a1.704 1.704 0 0 1-.448-1.152V16.8c0-.47.15-.853.448-1.152a1.704 1.704 0 0 1 1.152-.448h29.888c.469 0 .853.15 1.152.448.299.299.448.683.448 1.152v6.016c0 .427-.149.81-.448 1.152-.299.299-.683.448-1.152.448H79.552v8.64H98.56c.47 0 .853.17 1.152.512.299.299.448.683.448 1.152v5.568c0 .427-.149.81-.448 1.152-.299.299-.683.448-1.152.448H79.552v8.896h20.928c.469 0 .853.15 1.152.448.299.299.448.683.448 1.152V58.4c0 .427-.149.81-.448 1.152-.299.299-.683.448-1.152.448h-30.4Zm39.769 0c-.426 0-.81-.15-1.152-.448a1.707 1.707 0 0 1-.448-1.152V16.8c0-.47.15-.853.448-1.152a1.706 1.706 0 0 1 1.152-.448h16.64c6.272 0 11.136 1.493 14.592 4.48 3.456 2.987 5.27 7.317 5.44 12.992.043 1.237.064 2.88.064 4.928s-.021 3.67-.064 4.864c-.213 5.93-1.984 10.347-5.312 13.248-3.285 2.859-8.085 4.288-14.4 4.288h-16.96Zm16.64-9.216c2.816 0 4.886-.661 6.208-1.984 1.323-1.365 2.027-3.52 2.112-6.464.086-1.237.128-2.837.128-4.8 0-1.963-.042-3.541-.128-4.736-.085-2.859-.853-4.97-2.304-6.336-1.408-1.365-3.52-2.048-6.336-2.048h-6.4v26.368h6.72ZM154.556 60c-.427 0-.811-.15-1.152-.448a1.702 1.702 0 0 1-.448-1.152V16.8c0-.47.149-.853.448-1.152a1.703 1.703 0 0 1 1.152-.448h16.64c6.272 0 11.136 1.493 14.592 4.48 3.456 2.987 5.269 7.317 5.44 12.992.043 1.237.064 2.88.064 4.928s-.021 3.67-.064 4.864c-.213 5.93-1.984 10.347-5.312 13.248-3.285 2.859-8.085 4.288-14.4 4.288h-16.96Zm16.64-9.216c2.816 0 4.885-.661 6.208-1.984 1.323-1.365 2.027-3.52 2.112-6.464.085-1.237.128-2.837.128-4.8 0-1.963-.043-3.541-.128-4.736-.085-2.859-.853-4.97-2.304-6.336-1.408-1.365-3.52-2.048-6.336-2.048h-6.4v26.368h6.72ZM199.263 60c-.427 0-.811-.15-1.152-.448a1.702 1.702 0 0 1-.448-1.152V16.8c0-.47.149-.853.448-1.152a1.703 1.703 0 0 1 1.152-.448h29.888c.469 0 .853.15 1.152.448.298.299.448.683.448 1.152v6.016c0 .427-.15.81-.448 1.152-.299.299-.683.448-1.152.448h-20.416v8.64h19.008c.469 0 .853.17 1.152.512.298.299.448.683.448 1.152v5.568c0 .427-.15.81-.448 1.152-.299.299-.683.448-1.152.448h-19.008v8.896h20.928c.469 0 .853.15 1.152.448.298.299.448.683.448 1.152V58.4c0 .427-.15.81-.448 1.152-.299.299-.683.448-1.152.448h-30.4Z" fill="url(#a)"/><path fill-rule="evenodd" clip-rule="evenodd" d="M3.063 20.168.176 25.31 0 25.55l.031.017-.031.055v25.562l28.535 16 .057.092 28.173-15.92.001-.496.001-.993-.021-.03V21.94h-.012l.03-.045L30.123 7.276 3.063 20.17v-.001Zm47.085 9.462L28.632 41.469l-.06.102L5.106 28.413v4.776l23.733 13.308 13.162-7.38 3.299 5.55-16.709 9.221-.02-.04v.04L5.107 40.614v6.034L28.545 59.79l21.603-12.114V29.63ZM9.496 23.879l19.796-10.483 18.735 10.072-19.323 10.835-6.053-3.285 9.24-5.182a.97.97 0 0 0 .361-1.348l-2.277-3.831a1.03 1.03 0 0 0-1.383-.37l-12.647 7.091-6.449-3.5Z" fill="url(#b)"/><defs><linearGradient id="a" x1="64" y1="0" x2="64" y2="76" gradientUnits="userSpaceOnUse"><stop stop-color="#42275A"/><stop offset="1" stop-color="#734B6D"/></linearGradient><linearGradient id="b" x1="0" y1="7.276" x2="0" y2="67.276" gradientUnits="userSpaceOnUse"><stop stop-color="#42275A"/><stop offset="1" stop-color="#734B6D"/></linearGradient></defs></svg>