
<svg viewBox="104.80000000000007 52.307692307692264 812.2000000000002 588.4615384615387" xmlns="http://www.w3.org/2000/svg" overflow="visible" xmlns:xlink="http://www.w3.org/1999/xlink" width="812.2000000000002px" height="588.4615384615387px"><g id="Master/Scene/3 Characters" stroke="none" stroke-width="1" fill="none" fill-rule="evenodd"><g id="Background" transform="scale(1 1)"><g id="Background/Wireframe" stroke="none" stroke-width="1" fill="none" fill-rule="evenodd"><path d="M807.581488,225.207951 C807.098379,224.856731 805.952216,224.732194 805.419,224.626981 C803.202622,224.19018 800.919435,224 798.659884,224 C791.69246,224.010429 784.611902,224.694157 777.760135,225.877569 C773.409947,226.62878 768.150896,229.156949 763.823398,227.783971 C756.284311,225.391689 748.664864,225.509171 741.512138,228.924439 C734.972675,232.04738 730.008279,237.978547 727.1112,244.387311 C726.674101,245.354775 724.90081,248.915438 724.398793,251.315696 C724.184183,251.806483 723.978081,252.300645 723.792149,252.802168 C723.264605,254.226065 722.79158,255.675115 722.351961,257.126926 C722.164137,257.746238 721.691743,259.113695 722.252692,259.378106 C721.356434,261.031753 720.561967,262.736013 719.900174,264.495486 C717.975616,269.612558 715.871428,275.225633 715.195138,280.649141 C714.944602,282.657382 714.935148,284.677279 715.167721,286.689507 C715.282747,287.683966 715.235161,289.683924 715.90956,290.440044 C717.340924,292.044612 718.07583,289.798339 717.914479,288.728423 C716.682282,280.573989 719.061587,272.916478 721.881457,265.251298 C723.704855,260.294652 726.700888,255.760083 730.057126,251.653419 C732.773315,248.329254 735.687096,245.711516 739.410472,243.507574 C743.96361,240.812537 748.831573,238.633748 753.654785,236.44821 C756.826981,235.010203 760.002959,233.610845 763.263709,232.371914 C763.988846,232.096152 765.129652,231.389418 765.933573,231.386658 C767.633751,231.380523 770.042994,232.634792 771.685187,233.101346 C777.086681,234.636591 782.557191,236.602195 788.139576,237.386228 C791.720193,237.889591 795.074855,237.323039 798.423529,236.130425 C798.765771,236.008955 799.339325,235.695772 800.042086,235.248542 C802.528223,234.292426 804.880111,233.089077 806.927888,231.353223 C808.107771,230.352937 809.178301,229.060325 810.154604,227.877221 C810.446738,227.523547 810.575945,227.118034 810.580357,226.732766 C810.801585,226.617124 810.948441,226.482158 810.98153,226.324492 C811.225133,225.160099 809.003714,225.138627 807.581488,225.207951" id="Twisted-Leaf" fill="#89C5CC"/><path d="M798.164074,257.594343 C795.06321,256.923087 791.63938,256.974462 788.480776,257.029836 C771.541191,257.2581 754.906807,265.20519 744.080752,277.903369 C734.864456,288.713602 732.330212,302.153791 730.509478,315.740107 C730.328959,317.089079 730.251549,318.429437 730.14971,319.781178 C730.127819,320.071276 730.095142,320.329996 730.060243,320.573641 C729.344196,321.207981 728.968564,321.947531 729.392419,322.759991 C727.81502,326.180565 726.48064,329.687892 725.335662,333.305352 C721.965765,343.953154 718.537811,354.80338 720.649469,366 C721.142802,359.838413 722.180548,353.537776 723.421655,347.477401 C723.493037,347.129468 723.570131,346.784303 723.650396,346.440369 C723.658645,346.404068 723.666259,346.367768 723.674508,346.331775 C724.113908,344.475823 724.684969,342.675553 725.379443,340.903586 C725.38674,340.884205 725.39372,340.865131 725.401334,340.846058 C725.493021,340.612872 725.590419,340.380917 725.686548,340.148961 C725.885467,339.668746 726.08978,339.189453 726.306466,338.712621 C726.379753,338.550191 726.450184,338.386223 726.517759,338.221024 C727.528855,335.765495 727.955882,332.998641 728.861649,330.457898 C729.078335,329.880163 729.304856,329.304581 729.542164,328.732075 C729.556123,328.698543 729.5704,328.665011 729.584676,328.631479 C730.226168,327.090852 730.934919,325.56899 731.684279,324.063125 C732.091636,323.759799 732.309273,323.007328 732.660476,322.323459 C732.733128,322.188716 733.301017,321.290119 733.470114,320.772372 C733.911418,319.926381 734.351135,319.080082 734.795611,318.235628 C734.782287,318.24055 734.768962,318.245472 734.755637,318.250395 C735.20043,317.439473 735.646493,316.631936 736.089065,315.827783 C736.186463,315.651201 736.284813,315.474312 736.382845,315.297115 C736.54179,315.015016 736.700736,314.733223 736.859364,314.452047 C738.343172,311.820859 739.916446,309.242277 741.550316,306.695689 C742.133433,305.78694 743.526506,304.483806 743.793635,303.463386 C743.80347,303.42524 743.805691,303.39017 743.811719,303.353561 C747.357059,298.419431 751.438561,293.868305 756.333192,290.262228 C755.741509,290.895952 754.483905,293.046616 754.15142,293.472381 C753.133979,294.77613 752.029292,295.989744 750.920482,297.218123 C748.934774,299.418624 746.996021,301.688958 745.273319,304.089728 C742.122964,308.48027 739.405029,313.100921 736.835887,317.814478 C736.811458,317.842165 736.784809,317.868314 736.761649,317.896616 C735.470416,319.473852 734.657605,321.857702 733.728044,323.661971 C737.406631,321.97368 741.474174,320.873891 745.249525,319.374794 C749.014406,317.880312 752.676813,316.216016 756.212634,314.261622 C760.912153,311.664274 765.787113,308.731606 770.227433,305.412858 C775.315907,302.285151 779.591888,297.980131 783.366287,293.462536 C787.831987,288.117408 791.924593,282.72552 794.455664,276.235381 C795.698992,273.046147 796.677093,269.720631 797.257038,266.356354 C797.282418,266.209613 797.314778,266.050566 797.349994,265.885367 C797.943263,264.723436 798.473716,263.535357 798.918826,262.319898 C799.625674,260.392268 801.295076,258.271752 798.164074,257.594343" id="Fill-10" fill="#56919C"/><path d="M782.109518,318.176079 C778.407927,315.65948 773.485526,315 769.055885,315 C751.754538,315 735.492075,321.435864 721.44322,331.02544 C713.745146,336.279933 706.858636,342.97132 700.778838,349.938225 C697.26957,353.959835 694.140441,358.310507 691.9251,363.149181 C690.430187,366.415066 689.404124,369.817863 688.708646,373.327749 C687.861044,377.605221 687.187744,381.969449 686.883148,386.318088 C686.76325,388.0305 685.770799,397.117163 688.61058,397.27102 C688.594293,397.495026 688.590481,397.708527 688.607807,397.9 C682.441725,407.566504 678.632018,418.895265 675.099186,429.636051 C672.025501,438.982643 669.28656,448.408196 667.508536,458.077411 C665.167753,470.807483 663.630217,483.729028 662.899047,496.6421 C662.742071,499.417272 662.634302,502.193799 662.541433,504.972699 C662.462771,507.342897 662.38307,509.713095 662.305448,512.083293 C662.218817,514.739515 661.752393,517.79766 662.173769,520.438292 C662.540393,522.738001 664.52564,522.389961 664.613311,520.101435 C664.719348,517.337786 664.702022,514.568714 664.822613,511.803031 C664.983054,508.132511 665.148347,504.461991 665.327501,500.792488 C666.574648,475.301506 671.253441,450.185336 679.888175,426.106509 C683.382543,416.362399 687.38665,407.138147 692.532907,398.124345 C697.057496,390.199059 702.500033,382.526584 708.06316,375.380746 C713.470351,368.436546 719.092041,361.652981 725.717271,355.769508 C731.093621,350.995223 737.007433,346.836024 743.086538,342.965897 C750.807829,338.050634 758.514219,333.25466 766.87797,329.481456 C771.225484,327.520299 775.655125,325.764508 780.036599,323.882651 C780.824946,323.5441 781.670123,323.215715 782.428321,322.823619 C784.957614,321.515842 784.124912,319.546212 782.109518,318.176079" id="Fill-1" fill="#C1DEE2" transform="translate(723.000000, 418.500000) rotate(32.000000) translate(-723.000000, -418.500000)"/><path d="M265.210947,281.694637 C263.842872,282.767603 262.501106,283.863775 261.192035,285.003909 C260.194408,285.873246 258.428825,286.913411 258.070674,288.230299 C257.69837,289.598282 258.873747,290.879185 259.802286,291.706472 C264.71238,296.081582 270.241308,299.039569 277.045099,299.531382 C287.521323,300.289001 296.638695,297.698031 305.728203,292.599689 C312.11311,289.018397 316.342433,283.720922 317.266133,276.567848 C324.86996,279.628633 332.224335,283.84722 338.473834,289.025026 C341.557454,291.580043 344.213313,294.410558 346.670011,297.548019 C348.243233,299.55789 349.765219,301.600254 351.177575,303.720909 C351.791521,304.642259 352.415584,306.276333 353.429185,306.806942 C354.619114,307.430378 356.057178,306.453267 355.998247,305.171998 C355.949195,304.105638 354.760095,302.86857 354.204367,301.996929 C353.280798,300.5493 352.343694,299.110749 351.356683,297.702879 C349.759706,295.423605 348.109101,293.176394 346.308801,291.043124 C342.26323,286.250707 337.115517,282.291539 331.779364,278.915479 C321.542246,272.43849 310.30725,268.358108 297.850967,268.012448 C290.191757,267.799669 283.748556,270.334155 277.198714,274.119023 C273.120852,276.475452 268.911325,278.792472 265.210947,281.694637" id="Fill-16" fill="#C7D1D9"/><path d="M347.535655,282.007477 C339.574153,273.792364 331.585088,265.679541 322.690108,258.445718 C317.448096,254.183156 311.923388,250.307035 306.512679,246.265293 C307.137256,246.813165 307.749389,247.376996 308.346975,247.954514 C306.658122,246.805763 304.447175,246.156628 302.656516,245.093238 C300.659368,243.907337 298.75028,242.550687 296.877577,241.18317 C293.222284,238.514478 289.6219,235.795061 285.864645,233.265524 C281.678301,230.447523 277.339873,227.843592 273.082397,225.131814 C269.469061,222.83034 265.811527,220.311238 261.945996,218.42994 C259.839205,217.40444 257.727451,216.188838 255.611987,215.1193 C254.903992,214.761457 247.719977,210.216276 247.738085,210.202603 C248.135202,209.902768 251.750331,211.604736 252.309357,211.83371 C253.942499,212.502059 255.504292,213.301509 257.074477,214.098485 C256.212631,212.395212 255.530424,210.605734 255.159094,208.722094 C255.044365,208.140672 254.12525,203.908082 254.595554,203.552989 C254.830454,203.375632 257.122435,210.948332 257.23982,211.676418 C257.335225,212.267796 257.321177,213.119445 257.51442,213.679431 C257.826332,214.583853 257.8106,214.31075 258.497785,214.820231 C259.757283,215.754089 261.429141,216.3376 262.792285,217.118287 C263.527361,217.529439 265.803205,219.159833 267.174038,219.624633 C271.321757,221.643111 275.525895,224.748491 279.466798,227.326652 C278.432568,225.378965 277.645395,223.342439 277.071441,221.208256 C276.934885,220.701623 275.461911,216.156226 275.819291,215.886393 C276.221438,215.58276 279.028037,222.524789 279.19426,223.182019 C279.503102,224.402703 279.567205,225.761447 279.953848,226.949261 C280.37833,228.252926 281.702591,228.715047 282.896335,229.474967 C287.287994,232.270787 291.528846,235.241482 295.699115,238.348492 C300.249324,230.2401 295.002747,220.448561 290.58089,213.645256 C287.393739,208.742149 283.102865,204.53839 278.572359,200.868505 C272.52602,195.970592 265.608195,192.057749 258.698891,188.478675 C250.648149,184.308323 241.946724,181.72439 232.900509,180.530669 C228.169178,179.906248 223.328753,179.923734 218.549632,180.123923 C216.214997,180.221549 213.974137,180.531421 211.736823,181.294279 C210.728452,181.638584 209.753903,182.072425 208.804199,182.558175 C208.082618,182.92729 206.337065,183.316923 205.922214,183.86686 C202.506995,188.320616 200.759802,192.758763 201.026611,198.355412 C201.27891,203.653321 202.948858,208.953983 205.215136,213.679671 C207.739008,218.941856 210.985107,223.717819 215.230401,227.726231 C218.469367,230.784561 222.090555,233.44618 225.687875,236.072917 C238.482378,245.415689 254.7036,253.541258 271.274721,251.453778 C276.638809,250.778326 281.740757,248.898674 286.50855,246.344549 C287.631971,245.742698 288.748644,245.133972 289.809118,244.423256 C290.524223,243.944342 292.435672,241.785597 293.154717,241.70724 C294.140473,241.599731 296.264171,243.608742 297.189004,244.220299 C304.217463,248.869028 311.061841,253.769501 317.762766,258.868258 C324.891951,264.293177 331.671636,270.087012 338.251632,276.153258 C341.050234,278.73354 343.831047,281.319531 346.548569,283.986518 C347.181071,284.606795 348.728036,286.891776 349.875225,286.995245 C350.600699,287.060703 351.089745,286.440072 350.986178,285.767585 C350.806244,284.598241 348.350804,282.848587 347.535655,282.007477" id="Leaf" fill="#C1DEE2"/><g id="Mobile3" transform="translate(264.000000, 118.000000)"><g id="Group" transform="translate(-0.000000, 192.000000)" fill="#89C5CC"><path d="M12.139863,0 C10.8150371,0 9.4942504,0.0266022626 8.17108772,0.095441451 C7.1624999,0.14817927 5.62122565,-0.0609051802 4.76778691,0.567748289 C3.88108497,1.22067049 3.94214671,2.55731751 4.08066419,3.50123112 C4.81292983,8.49288902 6.60011418,12.9191321 10.3388981,16.4555996 C16.0955705,21.9011294 22.6949899,24.6679981 30.5042395,25.9001029 C35.9898168,26.7656098 41.0539017,25.563841 45.0920545,21.6628758 C48.0425006,27.1389749 50.2808765,33.1989237 51.4039848,39.3151105 C51.9580547,42.3330672 52.1272219,45.3146208 52.0298082,48.3876489 C51.9670833,50.3559829 51.8585027,52.31965 51.647519,54.2786499 C51.5560451,55.1299223 51.1219604,56.4184986 51.4553052,57.222867 C51.8463854,58.1674807 53.1652714,58.2589551 53.7573564,57.4534199 C54.250127,56.7829963 54.1596035,55.4664176 54.2608187,54.6730168 C54.4285603,53.355038 54.583947,52.0361258 54.6951411,50.7120799 C54.8757128,48.5689643 55.0092408,46.4197815 55,44.2684985 C54.9769279,39.4350541 53.9022889,34.582708 52.4322929,29.9945178 C49.6122862,21.1922025 45.0366951,13.3692704 37.9205081,7.23138172 C33.5449714,3.45712737 28.5371962,1.92866404 22.8556037,1.10819426 C19.3182997,0.597384143 15.7232603,0 12.139863,0" id="Fill-16"/><path d="M32.5712675,35 C18.2723696,35 8.64204555,46.5241625 4.08868149,58.5015953 C2.37224237,63.0163306 1.96994464,67.9738742 1.30842479,72.7144486 C1.09603594,74.2357354 1.17471582,76.5539408 0.557219238,77.9092029 C0.333122071,78.4006816 -0.180638832,78.5773956 0.0650016363,79.2469528 C0.213697249,79.6524625 0.505468481,79.9008173 0.943593663,79.9813279 C1.84302649,80.1468978 3.11478377,79.1673519 3.88589345,78.780719 C10.2819123,75.5730304 14.484261,70.6132124 17.9124559,64.5448952 C20.0375153,60.7836392 22.1937187,56.8791017 23.4561093,52.7498622 C24.227219,50.2274235 24.6761159,47.5708006 24.9397871,44.953978 C25.0435228,43.9234876 25.1439802,42.8684346 25.1378918,41.8315761 C25.1318035,40.8029052 24.6531676,40.2591173 24.3091772,39.363721 C29.080316,37.5576904 34.465673,37.0655295 39.2986316,38.9370602 C43.7686325,40.6680385 47.4818078,44.0130955 49.5609705,48.2155678 C50.1011922,49.3079195 50.5177741,50.460313 50.8212537,51.6356771 C51.0198267,52.4055314 51.0294275,53.4044089 51.397537,54.1003482 C52.290179,55.7876597 54.1681928,54.6596013 53.9878848,53.088962 C53.4851297,48.7075013 50.9786134,44.3087559 47.774984,41.2625435 C43.7344442,37.4207769 38.2575282,35 32.5712675,35" id="Fill-18"/></g><rect id="Container" fill="#C7D1D9" x="48" y="0" width="143" height="271" rx="8"/><circle id="Touch" fill="#FFF" cx="119" cy="240" r="15"/><g id="Camera" transform="translate(104.000000, 14.000000)" fill="#FFF"><circle id="Lens" cx="2" cy="2" r="2"/><rect id="Sensor" x="9" y="0" width="21" height="4" rx="2"/></g><g id="Rows" transform="translate(64.000000, 28.000000)"><g id="Row"><rect id="Container" fill="#FFF" x="0" y="0" width="110" height="48" rx="4"/><g id="Text-Stuff" transform="translate(9.000000, 14.400000)" fill="#C7D1D9"><rect id="Label" x="0" y="0" width="52" height="7.2" rx="3"/><rect id="Label" x="0" y="12" width="34.904" height="7.2" rx="3"/></g><g id="Check" transform="translate(91.244275, 17.000000)"><circle id="Background" fill="#C7D1D9" cx="7" cy="7" r="7"/><circle id="Indicator" fill="#F2F2F2" cx="7" cy="7" r="3"/></g></g><g id="Row" transform="translate(0.000000, 56.000000)"><rect id="Background" fill="#FFF" x="0" y="0" width="110" height="37" rx="4"/><g id="Text" transform="translate(39.000000, 11.100000)" fill="#C7D1D9"><rect id="Name" x="0" y="0" width="52" height="5.55" rx="2.775"/><rect id="Name" x="0" y="9.25" width="34.904" height="5.55" rx="2.775"/></g><circle id="Avatar" fill="#C5CFD6" cx="21" cy="18.5" r="12"/></g><g id="Row" transform="translate(0.000000, 101.000000)"><rect id="Container" fill="#FFF" x="0" y="0" width="110" height="37" rx="4"/><g id="Text-Stuff" transform="translate(9.000000, 11.100000)" fill="#C7D1D9"><rect id="Label" x="0" y="0" width="52" height="5.55" rx="2.775"/><rect id="Label" x="0" y="9.25" width="34.904" height="5.55" rx="2.775"/></g><g id="Check" transform="translate(91.244275, 11.500000)"><circle id="Background" fill="#C7D1D9" cx="7" cy="7" r="7"/><circle id="Indicator" fill="#F2F2F2" cx="7" cy="7" r="3"/></g></g><g id="Row" transform="translate(0.000000, 146.000000)"><rect id="Background" fill="#FFF" x="0" y="0" width="110" height="37" rx="4"/><g id="Text" transform="translate(39.000000, 11.100000)" fill="#C7D1D9"><rect id="Name" x="0" y="0" width="52" height="5.55" rx="2.775"/><rect id="Name" x="0" y="9.25" width="34.904" height="5.55" rx="2.775"/></g><circle id="Avatar" fill="#C5CFD6" cx="21" cy="18.5" r="12"/></g></g></g><g id="Web" transform="translate(426.000000, 164.000000)"><rect id="Container" fill="#F2F2F2" x="0" y="0" width="302" height="311" rx="8"/><rect id="Background" fill="#FFF" x="225" y="39" width="63" height="73" rx="8"/><g id="Profile-Info" transform="translate(234.000000, 52.000000)" fill="#C7D1D9"><ellipse id="Avatar" cx="22.5" cy="14.462" rx="14.4" ry="14.462"/><rect id="Name" x="0" y="32.538" width="45" height="5.423" rx="2.712"/><rect id="Name" x="7.2" y="41.577" width="30.6" height="5.423" rx="2.712"/></g><path d="M8,0 L294,0 C298.418278,-8.11624501e-16 302,3.581722 302,8 L302,24 L302,24 L-5.68434189e-14,24 L-5.68434189e-14,8 C-5.73845019e-14,3.581722 3.581722,8.11624501e-16 8,0 Z" id="Header" fill="#C5CFD6"/><g id="Buttons" transform="translate(9.000000, 10.000000)" fill="#F2F2F2"><circle id="buttons" cx="4" cy="4" r="4"/><circle id="buttons" cx="16" cy="4" r="4"/><circle id="buttons" cx="28" cy="4" r="4"/></g><g id="Components" transform="translate(225.000000, 119.000000)"><rect id="Background" fill="#FFF" x="0" y="0" width="63" height="174" rx="8"/><g id="Rows" transform="translate(18.000000, 18.000000)"><rect id="Data" fill="#C7D1D9" x="0" y="0" width="27" height="23" rx="4"/><rect id="Data" fill="#AFB9C5" x="0" y="31" width="27" height="22" rx="4"/><rect id="Data" fill="#C7D1D9" x="0" y="61" width="27" height="22" rx="4"/><rect id="Data" fill="#C7D1D9" x="0" y="121" width="27" height="22" rx="4"/><rect id="Data" fill="#C5CFD6" x="0" y="91" width="27" height="22" rx="4"/></g></g><g id="Rows" transform="translate(16.000000, 44.000000)"><g id="Row"><rect id="Container" fill="#FFF" x="0" y="0" width="192" height="42" rx="4"/><g id="Text-Stuff" transform="translate(9.000000, 12.600000)" fill="#C7D1D9"><rect id="Label" x="0" y="0" width="134" height="6.3" rx="3"/><rect id="Label" x="0" y="10.5" width="89.945" height="6.3" rx="3"/></g><g id="Check" transform="translate(164.480916, 14.000000)"><circle id="Background" fill="#C7D1D9" cx="7" cy="7" r="7"/><circle id="Indicator" fill="#F2F2F2" cx="7" cy="7" r="3"/></g></g><g id="Row" transform="translate(0.000000, 50.000000)"><rect id="Container" fill="#FFF" x="0" y="0" width="192" height="34" rx="4"/><g id="Text-Stuff" transform="translate(9.000000, 10.200000)" fill="#C7D1D9"><rect id="Label" x="0" y="0" width="134" height="5.1" rx="2.55"/><rect id="Label" x="0" y="8.5" width="89.945" height="5.1" rx="2.55"/></g><g id="Check" transform="translate(164.480916, 10.000000)"><circle id="Background" fill="#C7D1D9" cx="7" cy="7" r="7"/><circle id="Indicator" fill="#F2F2F2" cx="7" cy="7" r="3"/></g></g><g id="Row" transform="translate(0.000000, 92.000000)"><rect id="Container" fill="#FFF" x="0" y="0" width="192" height="34" rx="4"/><g id="Text-Stuff" transform="translate(9.000000, 10.200000)" fill="#C7D1D9"><rect id="Label" x="0" y="0" width="134" height="5.1" rx="2.55"/><rect id="Label" x="0" y="8.5" width="89.945" height="5.1" rx="2.55"/></g><g id="Check" transform="translate(164.480916, 10.000000)"><circle id="Background" fill="#C7D1D9" cx="7" cy="7" r="7"/><circle id="Indicator" fill="#AFB9C5" cx="7" cy="7" r="3"/></g></g><g id="Row" transform="translate(0.000000, 218.000000)"><rect id="Container" fill="#FFF" x="0" y="0" width="192" height="34" rx="4"/><g id="Text-Stuff" transform="translate(9.000000, 10.200000)" fill="#C7D1D9"><rect id="Label" x="0" y="0" width="134" height="5.1" rx="2.55"/><rect id="Label" x="0" y="8.5" width="89.945" height="5.1" rx="2.55"/></g><g id="Check" transform="translate(164.480916, 10.000000)"><circle id="Background" fill="#C7D1D9" cx="7" cy="7" r="7"/><circle id="Indicator" fill="#F2F2F2" cx="7" cy="7" r="3"/></g></g><g id="Row" transform="translate(0.000000, 176.000000)"><rect id="Container" fill="#FFF" x="0" y="0" width="192" height="34" rx="4"/><g id="Text-Stuff" transform="translate(9.000000, 10.200000)" fill="#C7D1D9"><rect id="Label" x="0" y="0" width="134" height="5.1" rx="2.55"/><rect id="Label" x="0" y="8.5" width="89.945" height="5.1" rx="2.55"/></g><g id="Check" transform="translate(164.480916, 10.000000)"><circle id="Background" fill="#C7D1D9" cx="7" cy="7" r="7"/><circle id="Indicator" fill="#F2F2F2" cx="7" cy="7" r="3"/></g></g><g id="Row" transform="translate(0.000000, 134.000000)"><rect id="Container" fill="#FFF" x="0" y="0" width="192" height="34" rx="4"/><g id="Text-Stuff" transform="translate(9.000000, 10.200000)" fill="#C7D1D9"><rect id="Label" x="0" y="0" width="134" height="5.1" rx="2.55"/><rect id="Label" x="0" y="8.5" width="89.945" height="5.1" rx="2.55"/></g><g id="Check" transform="translate(164.480916, 10.000000)"><circle id="Background" fill="#C7D1D9" cx="7" cy="7" r="7"/><circle id="Indicator" fill="#F2F2F2" cx="7" cy="7" r="3"/></g></g></g></g><g id="Plant" transform="translate(154.000000, 363.000000)"><path d="M8.91484143,32.2190109 C25.6597822,60.4522572 45.1623154,87.7898019 56.8742785,118.658711 C56.4023156,115.020206 55.9018784,111.385471 55.3417418,107.755907 C52.3699916,88.5156129 48.6765895,69.415714 44.7954525,50.3392297 C42.8189469,40.6264104 40.728555,30.9487903 38.5845495,21.2719978 C37.4314368,16.0745893 36.2924623,10.8740139 35.1155892,5.68155465 C34.8305248,4.42303953 34.5855962,2.22637524 34.2287095,0 C45.6108781,37.5385798 56.5871265,75.1054651 64.6158625,113.546486 C65.6691257,118.59146 66.5660584,123.62747 67.3007691,128.654718 C67.5521043,127.507881 67.7993153,126.360849 68.0698984,125.217155 C71.3184741,111.506633 76.1914426,97.9052355 81.9935648,85.0856314 C84.7673233,78.9549889 87.953376,72.9586044 91.7046649,67.3711954 C94.0438986,63.8883165 99.560539,59.7481585 101.6945,56.181183 C90.0239597,77.6940898 85.8099444,104.611197 79.0713699,127.99958 C77.4266145,133.707015 75.7716418,139.405184 74.1500607,145.113391 C84.3121163,124.631226 100.078767,107.802639 122,100.509873 C95.4651928,118.13059 79.5493553,148.98887 68.8242669,180.549151 C68.7889267,180.923438 68.7469093,181.297729 68.7105874,181.672609 C71.8665798,175.652768 75.8420269,170.207841 81.2300161,166.394292 C92.7617961,158.230416 105.554308,160.608692 116.74055,167.61164 C107.961233,162.002807 92.0944482,167.110188 84.7074739,172.810877 C79.4192011,176.891685 74.8997731,182.366398 70.9751335,187.707514 C70.0347432,188.987818 68.7517717,190.481639 67.396388,192.075539 C65.4960843,204.472912 62.3993326,216.785318 58.0150014,229 C58.7385308,225.49401 58.2154043,219.886771 58.416049,217.273503 C58.4378887,216.990572 58.4556041,216.707446 58.4772479,216.425304 C57.8108023,219.09967 57.1669248,221.743638 56.5469832,224.344973 C57.7793387,219.38103 58.4491163,214.199088 58.9719655,208.963588 C59.1066272,206.713581 59.2379503,204.463576 59.3767363,202.213763 C59.3327498,197.943818 59.1577626,193.656999 58.8617961,189.363361 C57.8123518,185.190412 56.6373491,181.254303 55.6683307,177.980946 C52.1716009,166.169638 47.0455092,154.854106 40.7361997,144.297807 C34.9796443,134.664634 28.08905,125.938826 20.1342911,118.047335 C15.845957,113.794432 11.3580068,109.743895 6.93326287,105.637085 C5.33325022,104.152427 2.4733881,100.502017 -5.68434189e-14,98.5991347 C18.0133784,108.580049 36.5541184,119.377965 49.6949135,135.459456 C48.154306,129.513604 46.4809859,123.651893 44.7109107,117.907639 C35.7308822,88.7640624 24.3922276,58.5595609 8.91484143,32.2190109 Z" id="Fill-19" fill="#C7D1D9"/><path d="M27,192 C27,224.5848 29.5654643,251 64,251 C98.4345357,251 101,224.5848 101,192" id="Base" fill="#C5CFD6"/></g><g id="Graph" transform="translate(807.000000, 104.000000)"><rect id="Value" fill="#C7D1D9" x="0" y="29" width="5" height="22" rx="2.5"/><rect id="Value" fill="#C7D1D9" x="13" y="14" width="5" height="37" rx="2.5"/><rect id="Value" fill="#C7D1D9" x="26" y="7" width="5" height="44" rx="2.5"/><rect id="Value" fill="#C7D1D9" x="38" y="14" width="5" height="37" rx="2.5"/><rect id="Value" fill="#C5CFD6" x="51" y="0" width="5" height="51" rx="2.5"/></g><g id="Pie-Chart" transform="translate(134.000000, 348.500000) scale(-1, 1) translate(-134.000000, -348.500000) translate(116.000000, 331.000000)"><path d="M36,17.9413722 C36,8.07541164 27.8982,0 18,0 L18,17.9413722 L30.3012,31 C33.8004,27.8073328 36,23.1237376 36,17.9413722 Z" id="Value" fill="#F2F2F2"/><path d="M18.4151123,17 L5.68434189e-14,17 C5.68434189e-14,21.6989 1.94187359,26.1017 5.01167281,29.3012 C8.38808364,32.8004 13.1962695,35 18.4151123,35 C23.2223773,35 27.6226684,33.1019 31,30.1013 L18.4151123,17 Z" id="Value" fill="#AFB9C5"/><path d="M5.68434189e-14,18 C5.68434189e-14,8.1018 8.1018,0 18,0 L18,18 L5.68434189e-14,18 Z M27,0 L19.8,16.2 L36,9 C34.398,4.8006 30.8007,1.602 27,0 Z" id="Value" fill="#C5CFD6"/></g><g id="Chart" transform="translate(852.000000, 361.000000)"><path d="M34.1350812,32.84145 C32.3982695,34.64345 29.9378997,35.775 27.2014353,35.775 C21.9433979,35.775 17.680933,31.62245 17.680933,26.5 C17.680933,21.37755 21.9433979,17.225 27.2014353,17.225 L27.2014353,0 C12.243366,0 0,11.92765 0,26.5 C0,41.07235 12.243366,53 27.2014353,53 C35.0585699,53 42.1595046,49.7617 47,44.6101 L34.1350812,32.84145 Z" id="Value" fill="#F2F2F2"/><path d="M27,0 L27,17.55 C32.2191,17.55 36.45,21.7809 36.45,27 L54,27 C54,12.1527 41.8473,0 27,0 Z" id="Value" fill="#AFB9C5"/><path d="M35.7555499,27 C35.7555499,29.9811105 34.2847665,32.6309865 32,34.3419195 L43.2399847,48 C49.7827252,43.1102843 54,35.5306239 54,27 L35.7555499,27 Z" id="Value" fill="#C5CFD6"/></g><g id="Chart" transform="translate(726.000000, 90.000000)"><path d="M26.8722979,25.40565 C25.5050207,26.79965 23.5681338,27.675 21.4138959,27.675 C17.2745898,27.675 13.9190323,24.46265 13.9190323,20.5 C13.9190323,16.53735 17.2745898,13.325 21.4138959,13.325 L21.4138959,0 C9.63839454,0 -5.68434189e-14,9.22705 -5.68434189e-14,20.5 C-5.68434189e-14,31.77295 9.63839454,41 21.4138959,41 C27.5992997,41 33.1893972,38.4949 37,34.5097 L26.8722979,25.40565 Z" id="Value" fill="#F2F2F2"/><path d="M21,0 L21,13.65 C25.0593,13.65 28.35,16.9407 28.35,21 L42,21 C42,9.4521 32.5479,0 21,0 Z" id="Value" fill="#AFB9C5"/><path d="M28.731309,21 C28.731309,23.2713223 27.6616484,25.2902754 26,26.5938434 L34.1745343,37 C38.932891,33.2745023 42,27.499523 42,21 L28.731309,21 Z" id="Value" fill="#C5CFD6"/></g><g id="Image" transform="translate(149.000000, 66.000000)"><path d="M43.007,46.9862978 C43.003,46.9962978 42.999,47.0062978 42.993,47.0182978 C42.999,47.0082978 43.007,46.9682978 43.007,46.9862978" id="Fill-35" fill="#C5CFD6"/><path d="M42.9976864,47.0014952 C42.9976864,47.0034952 42.9956864,47.0074952 42.9956864,47.0114952 C42.9956864,47.0014952 43.0136864,46.9714952 42.9976864,47.0014952" id="Fill-37" fill="#C5CFD6"/><path d="M43.0671431,46.8323017 C43.0531431,46.8723017 43.0351431,46.9103017 43.0191431,46.9503017 C43.0271431,46.9303017 43.0351431,46.9143017 43.0431431,46.8943017 C42.8351431,47.4143017 42.9671431,47.0763017 43.0671431,46.8323017" id="Fill-39" fill="#C5CFD6"/><path d="M43.0223751,46.95275 C43.0143751,46.97075 43.0063751,46.99075 42.9983751,47.00875 C42.9403751,47.12075 43.0223751,46.95275 43.0223751,46.95275" id="Fill-41" fill="#C5CFD6"/><polygon id="Fill-43" fill="#C5CFD6" points="43 47.001 43 47.001 43 46.999"/><path d="M42.999,47.002 C42.999,47 42.999,47 43.001,46.998 C42.999,47 42.999,47 42.999,47.002" id="Fill-45" fill="#C5CFD6"/><path d="M42.9895117,47.0163509 C42.9775117,47.0403509 43.0455117,46.9243509 42.9895117,47.0163509" id="Fill-47" fill="#C5CFD6"/><path d="M42.998,47.002 L43.002,46.998 C43,47 43,47.002 42.998,47.002" id="Fill-49" fill="#C5CFD6"/><rect id="Photo-Background" fill="#C7D1D9" x="0" y="0" width="86" height="57" rx="4"/><polygon id="Mountains" fill="#AFB9C5" points="32.2 16 7 57 57.4 57"/><polygon id="Mountains" fill="#C5CFD6" points="56.95 26.9333333 34.9 57 79 57"/><circle id="Sun" fill="#FFF" cx="67" cy="19" r="8"/></g><g id="Image" transform="translate(771.000000, 466.000000) scale(-1, 1) translate(-771.000000, -466.000000) translate(700.000000, 419.000000)"><path d="M71.007,76.9862978 C71.003,76.9962978 70.999,77.0062978 70.993,77.0182978 C70.999,77.0082978 71.007,76.9682978 71.007,76.9862978" id="Fill-35" fill="#C5CFD6"/><path d="M70.9976864,77.0014952 C70.9976864,77.0034952 70.9956864,77.0074952 70.9956864,77.0114952 C70.9956864,77.0014952 71.0136864,76.9714952 70.9976864,77.0014952" id="Fill-37" fill="#C5CFD6"/><path d="M71.0671431,76.8323017 C71.0531431,76.8723017 71.0351431,76.9103017 71.0191431,76.9503017 C71.0271431,76.9303017 71.0351431,76.9143017 71.0431431,76.8943017 C70.8351431,77.4143017 70.9671431,77.0763017 71.0671431,76.8323017" id="Fill-39" fill="#C5CFD6"/><path d="M71.0223751,76.95275 C71.0143751,76.97075 71.0063751,76.99075 70.9983751,77.00875 C70.9403751,77.12075 71.0223751,76.95275 71.0223751,76.95275" id="Fill-41" fill="#C5CFD6"/><polygon id="Fill-43" fill="#C5CFD6" points="71 77.001 71 77.001 71 76.999"/><path d="M70.999,77.002 C70.999,77 70.999,77 71.001,76.998 C70.999,77 70.999,77 70.999,77.002" id="Fill-45" fill="#C5CFD6"/><path d="M70.9895117,77.0163509 C70.9775117,77.0403509 71.0455117,76.9243509 70.9895117,77.0163509" id="Fill-47" fill="#C5CFD6"/><path d="M70.998,77.002 L71.002,76.998 C71,77 71,77.002 70.998,77.002" id="Fill-49" fill="#C5CFD6"/><rect id="Photo-Background" fill="#C7D1D9" x="0" y="0" width="142" height="94" rx="4"/><polygon id="Mountains" fill="#AFB9C5" points="52.7257937 27 11.6707937 94 93.7807937 94"/><polygon id="Mountains" fill="#C5CFD6" points="95.0557937 44.9464286 58.7607937 94 131.350794 94"/><circle id="Sun" fill="#FFF" cx="110.5" cy="31.5" r="13.5"/></g></g></g><g transform="translate(728.000000, 427.000000) scale(-1, 1) translate(-728.000000, -427.000000) translate(578.000000, 214.000000) scale(1 1)" id="Master/Pose/Standing"><g id="Master/Pose/Standing" stroke="none" stroke-width="1" fill="none" fill-rule="evenodd"><g id="Head/Front" transform="translate(82.000000, 0.000000) scale(1 1)"><g id="Head/Front/Wavy" stroke="none" stroke-width="1" fill="none" fill-rule="evenodd"><g id="Head" transform="translate(54.000000, 31.000000)" fill="#eac7a8"><path d="M38.1433414,9.13393292 C43.9381521,19.9350547 43.249578,47.3329958 35.7603014,49.2634576 C32.773664,50.0333035 26.4113241,48.1475566 19.935865,44.2446031 L24,73 L0,73 L8.26160177,34.4893378 C3.65406109,29.0807313 0.535660132,22.452516 1.05677633,15.0254539 C2.55833022,-6.37502057 32.3485306,-1.66718886 38.1433414,9.13393292 Z" id="SKIN"/></g><path d="M94.4090961,44.9836328 C94.1713645,43.583583 93.5903632,42.028843 93.1215639,40.7042644 C92.5171614,38.996708 91.602499,37.4571303 90.5959364,36.0061417 C88.7009022,33.2743581 86.427574,30.8074902 83.917599,28.760058 C79.3328188,25.0202318 73.4966155,22.8630853 67.7574266,23.5636213 C64.8597041,23.9172965 62.046753,25.0226169 59.6525443,26.8623756 C57.4894034,28.5246153 55.4087091,30.9715506 52.6076911,31.147366 C49.5599529,31.3385142 46.7662186,28.6484698 44.321953,26.9870819 C41.5660327,25.1141023 38.6342158,23.7493178 35.4132155,23.2188049 C30.0172962,22.3303577 24.9482191,24.1534208 21.2294392,28.5804946 C17.2721527,33.2915649 14.3955069,40.2003282 16.9942826,46.442458 C17.4773396,47.6028059 18.0987894,48.5810349 18.9906704,49.3917962 C19.8086285,50.1352639 21.0578819,50.926263 21.3895284,52.1142098 C21.7417865,53.3769463 20.6895063,55.005965 20.2814572,56.1453581 C19.6968915,57.7777841 19.2169339,59.4913033 19.3875614,61.2656423 C19.6679112,64.1795448 21.4990957,66.961245 23.4327187,68.8764749 C25.4004362,70.8254368 27.8222304,71.9430234 30.408918,72.4582035 C32.1361143,72.802168 33.9012795,72.9919533 35.6566813,72.8628175 C36.5281056,72.7987608 37.2970916,72.5566738 38.1413953,72.3641627 C38.9624528,72.1769329 39.4213338,72.3949985 40.1179464,72.8452701 C43.3539792,74.9373376 46.8334778,75.746736 50.5700799,75.4356517 C53.723666,75.1729507 57.3584495,74.4086987 59.9310344,72.2479746 C62.7879984,69.84823 62.7311226,66.5390835 62.0588411,63.0035235 C62.7711061,63.3565173 64.7416132,63.575094 63.5641132,62.1680594 C63.0976384,61.6107994 62.2162957,61.3840451 61.6177822,61.0562652 C60.9208597,60.6746502 60.2132439,60.181447 59.6720712,59.5589377 C57.4869238,57.0453901 59.6939227,51.9300465 62.4403895,51.0870864 C66.5208811,49.8347421 67.4344587,55.6054753 70.3473686,57.0982029 C72.0221834,57.9564958 73.7741757,56.7833706 75.0290082,55.5855427 C76.709867,53.980886 77.8554422,51.8550865 78.8444926,49.6918069 C79.6591961,47.9103126 80.4173338,46.1037748 81.2476898,44.3311394 C81.6354372,43.5033417 82.9778306,41.1632245 82.3036894,40.2272457 C85.2263628,39.6444311 88.4816125,40.8589547 90.9987164,42.4516859 C92.0390635,43.110142 92.8322255,43.8360622 93.387191,44.9984544 C93.5060568,45.2475263 93.7648651,45.9879274 94.0898476,46.0182522 C94.69487,46.0748129 94.4687615,45.335434 94.4090961,44.9836328" id="hair" fill="#4a312c"/></g></g><g id="Bottom/Standing" transform="translate(0.000000, 187.000000) scale(1 1)"><g id="Bottom/Standing/Skinny Jeans Walk" stroke="none" stroke-width="1" fill="none" fill-rule="evenodd"><polygon id="Leg" fill="#191847" points="128 0 176.081639 127.226909 209.783329 221 229 221 182.673688 9.81437154e-14"/><path d="M116.116628,0 C115.593979,43.6541888 115.971833,102.427468 114.754071,105.148648 C113.942229,106.962768 88.6908725,127.632305 39,167.157257 L48.9049803,184 C107.899481,145.955797 138.9048,124.399339 141.920937,119.330628 C146.445143,111.72756 169.1744,41.763137 181,0 L116.116628,0 Z" id="Leg" fill="#393f82"/><path d="M18.7225778,205.606482 L19.7225778,184.606482 L40.7225778,184.606482 C50.6801811,191.606482 63.6801811,197.273149 79.7225778,201.606482 L79.7225778,205.606482 L41.7225778,205.606482 L28.7225778,203.606482 L28.7225778,205.606482 L18.7225778,205.606482 Z" id="Shoe" fill="#191847" transform="translate(49.222578, 195.106482) rotate(50.000000) translate(-49.222578, -195.106482)"/><path d="M208,239 L209,218 L230,218 C239.957603,225 252.957603,230.666667 269,235 L269,239 L231,239 L218,237 L218,239 L208,239 Z" id="Shoe" fill="#191847"/></g></g><g id="Body" transform="translate(22.000000, 82.000000) scale(1 1)"><g id="Body/Trench Coat" stroke="none" stroke-width="1" fill="none" fill-rule="evenodd"><path d="M54.3748075,70.4422362 L71.7206892,74.8517457 C48.5010655,113.888004 36.0840272,134.518222 34.4695742,136.742401 C30.8370549,141.746803 33.4753713,151.405575 34.3717289,156.466114 C27.0159775,157.777312 30.4552622,146.986888 21.1392043,148.78923 C12.6359386,150.434324 5.23841582,155.412199 -2.21044035,147.785504 C-3.12623345,146.847846 -3.68533756,144.037711 -0.329858103,142.787288 C8.0298649,139.672029 20.4540206,133.669529 22.5472206,131.196025 C25.4016727,127.82296 36.0108683,107.571697 54.3748075,70.4422362 L54.3748075,70.4422362 Z M197.692975,90.2442388 L227.879596,115.83589 C236.347145,118.768177 243.354953,122.169788 248.90302,126.040723 C250.183668,127.382731 251.660283,130.022417 246.018183,129.189525 C240.376083,128.356632 234.403982,127.734299 233.485976,129.614404 C232.56797,131.49451 235.838922,134.048404 234.074175,136.548369 C232.897677,138.215012 228.219551,133.502554 220.039797,122.410996 L189.442799,107.140857 L197.692975,90.2442388 Z" id="SKIN" fill="#eac7a8" transform="translate(123.586250, 113.509597) rotate(-4.000000) translate(-123.586250, -113.509597)"/><path d="M138.264162,2.04144427 C153.1728,32.8586321 173.34952,62.4239679 203.321564,87.6788376 C207.426219,87.3835185 211.889688,88.0634542 216.675075,89.6758318 C219.030261,90.4693828 220.296216,93.0219384 219.502665,95.3771242 C219.041858,96.7447568 217.987913,97.7450999 216.723906,98.188165 C217.638754,98.8563073 218.562849,99.520867 219.495159,100.181671 L211.447983,116.609623 C177.58505,99.7255288 145.757134,86.9958405 131.253857,59.1215578 C126.386182,49.766228 128.033751,17.9882599 127.569134,6.42756866 L138.264162,2.04144427 Z" id="Back-Arm" fill="#005598"/><path d="M90,113.909745 C121.438326,117.363418 146.183737,117.363418 164.236234,113.909745 C166.472817,113.481858 166.374598,103.840401 165.337385,101.207228 C149.185283,60.2018743 138.560302,30.1840325 138.560302,1.70263734 C135.596594,3.25072994 130.409827,3.48273097 123,2.39864042 C103.086202,31.7496339 93.9325378,65.4265407 90,113.909745 Z" id="Shirt" fill="#191847"/><path d="M126.348425,-1.0658141e-14 C123,44.2807404 169.249642,140.9549 153.190593,223.518112 C123.507857,230.146789 81.1319105,209.522766 39.8828129,226 C41.4177174,192.750378 72.1641281,153.689543 84.1591577,118.756122 C83.0907846,117.752921 82.5343434,116.247171 82.8078928,114.695795 L83.3288374,111.741372 C83.6816959,109.740212 85.3063314,108.28273 87.2249777,108.053567 C87.5631559,106.554137 87.8526566,105.063334 88.0917371,103.583451 C90.1104671,91.0877276 86.6615358,78.8352569 86.8232868,66.8032625 C70.7430616,80.5217718 56.3180199,104.211352 43.5479488,137.871041 L43.5479488,137.871041 L24.6611622,132.313477 C25.3819892,129.635524 26.1286459,126.990471 26.9011324,124.378317 C24.72195,123.144957 22.1728798,117.466228 24.0066041,116.516161 C25.8996562,115.535355 27.905105,114.844989 30.0170446,114.438594 C47.3349841,62.2796711 75.6543384,24.1331607 114.975674,-4.19220214e-13 L114.975674,-4.19220214e-13 Z" id="Coat-Front" fill="#4388d2"/><polygon id="Shade-Lapel" fill-opacity=".1" fill="#000" points="119.105759 1 113.946604 16.8654451 124.335997 28.7590435 114.946604 38.1055065 137.662251 77 109.883587 38.1832119 119.105759 28.7590435 109.883587 18.2484583"/><path d="M137,130 C139.209139,130 141,131.790861 141,134 C141,136.209139 139.209139,138 137,138 C134.790861,138 133,136.209139 133,134 C133,131.790861 134.790861,130 137,130 Z M136,107 C138.209139,107 140,108.790861 140,111 C140,113.209139 138.209139,115 136,115 C133.790861,115 132,113.209139 132,111 C132,108.790861 133.790861,107 136,107 Z M131,84 C133.209139,84 135,85.790861 135,88 C135,90.209139 133.209139,92 131,92 C128.790861,92 127,90.209139 127,88 C127,85.790861 128.790861,84 131,84 Z" id="Buttons" fill-opacity=".4" fill="#000"/></g></g></g></g><g transform="translate(378.000000, 214.000000) scale(1 1)" id="Master/Pose/Sitting"><g id="Master/Pose/Sitting" stroke="none" stroke-width="1" fill="none" fill-rule="evenodd"><g id="Head/Front" transform="translate(38.000000, 73.000000) scale(1 1)"><g id="Head/Front/Short 1" stroke="none" stroke-width="1" fill="none" fill-rule="evenodd"><g id="Head" transform="translate(54.000000, 31.000000)" fill="#915b3c"><path d="M38.1433414,9.13393292 C43.9381521,19.9350547 43.249578,47.3329958 35.7603014,49.2634576 C32.773664,50.0333035 26.4113241,48.1475566 19.935865,44.2446031 L24,73 L0,73 L8.26160177,34.4893378 C3.65406109,29.0807313 0.535660132,22.452516 1.05677633,15.0254539 C2.55833022,-6.37502057 32.3485306,-1.66718886 38.1433414,9.13393292 Z" id="SKIN"/></g><path d="M56.0083277,41.4836551 C60.9542936,17.6778932 93.0418606,32.0720841 99.2217888,28.2267775 C100.570581,36.4881046 96.1519418,43.1302579 80.5941324,41.6513754 C77.7501646,43.6771966 75.5848032,47.047899 72.9877118,51.3371779 C72.3653549,51.1186901 71.6965382,51 71,51 C67.6862915,51 65,53.6862915 65,57 C65,58.6488742 65.6651194,60.1424015 66.7416995,61.2269232 C65.3710635,63.2083941 63.8357429,65.2773487 62.0803863,67.4111902 C55.8070263,63.5493926 51.049252,52.7163236 55.8514632,41.8316335 Z" id="Hair" fill="#2c1b18"/></g></g><g id="Bottom/Sitting" transform="translate(-44.000000, 260.000000) scale(1 1)"><g id="Bottom/Sitting/Skinny Jeans 1" stroke="none" stroke-width="1" fill="none" fill-rule="evenodd"><g id="Objects/Seat" transform="translate(10.000000, 42.000000) scale(1 1)"><g id="Objects/Seat/Cube" stroke="none" stroke-width="1" fill="none" fill-rule="evenodd"><g id="Seat" transform="translate(55.000000, 0.000000)"><polygon id="Seat-Stuff" fill="#C5CFD6" points="27.6226415 0 104.877193 0 115 124 0 124"/><polygon id="Seat-Stuff" fill-opacity=".1" fill="#000" points="27.6226415 0 51.3828011 0 65.6037736 124 0 124"/></g></g></g><path d="M257.954028,20.756908 L258.24189,20.5887017 C266.50855,15.9575335 280.00938,22.2466943 280.000005,29.2384154 C279.971611,50.4029106 260.656682,150.1511 259.648224,156.456711 C258.639766,162.762321 247.83665,164.42787 247.20755,156.477375 C246.206544,143.826795 244.3468,100.033121 246.20755,79.7626522 C246.975689,71.3947628 247.802939,63.4254961 248.617343,56.3158982 C238.483775,74.6174738 222.808496,100.823961 201.593128,134.933778 L190.076573,129.672175 C199.120166,99.8760987 206.535776,78.8408618 212.323403,66.5664641 C222.233227,45.5497154 231.525307,27.551672 235.436043,21.2120072 C241.587899,11.2392801 252.296386,14.7194928 257.954028,20.756908 Z" id="LegBack" fill="#915b3c"/><path d="M208.819223,123.340112 L213.936922,21.8299349 C217.625361,4.27739957 248.84365,12.4235349 248.830816,21.8299349 C248.801666,43.1853748 235.973522,116.956762 235.964839,123.319261 L208.819223,123.340112 Z" id="LegLower" fill="#1820bf" transform="translate(228.825019, 67.419630) rotate(20.000000) translate(-228.825019, -67.419630)"/><path d="M182.995119,136.879166 C181.876365,139.865652 181.316987,142.100234 181.316987,143.582912 C181.316987,145.386198 181.617402,148.017641 182.21823,151.477241 C184.310168,151.477241 203.110773,151.477241 238.620042,151.477241 C240.085725,146.631749 239.239648,144.015823 236.08181,143.629464 C232.923972,143.243106 230.300703,142.894255 228.212002,142.582912 L201.99698,130.896125 C201.492551,130.671248 200.901331,130.89787 200.676454,131.402299 C200.672607,131.410928 200.668883,131.419612 200.665282,131.428346 L198.9802,135.515936 L198.9802,135.515936 C196.056869,136.879893 193.681358,137.561872 191.853668,137.561872 C190.368714,137.561872 188.31798,136.962147 185.701465,135.762696 L185.701471,135.762684 C184.69737,135.302389 183.510243,135.743231 183.049947,136.747331 C183.030108,136.790609 183.01182,136.834582 182.995119,136.879166 Z" id="shoe" fill="#E4E4E4" transform="translate(210.316987, 140.977241) rotate(30.000000) translate(-210.316987, -140.977241)"/><path d="M244.678132,151.401924 C243.559377,154.388411 243,156.622993 243,158.105671 C243,159.908957 243.300414,162.5404 243.901243,166 C245.993181,166 264.793785,166 300.303055,166 C301.768738,161.154507 300.922661,158.538582 297.764823,158.152223 C294.606985,157.765865 291.983716,157.417014 289.895014,157.105671 L263.679993,145.418883 C263.175563,145.194006 262.584344,145.420628 262.359467,145.925057 C262.35562,145.933687 262.351895,145.94237 262.348295,145.951105 L260.663213,150.038695 L260.663213,150.038695 C257.739881,151.402652 255.364371,152.084631 253.536681,152.084631 C252.051727,152.084631 250.000992,151.484905 247.384478,150.285455 L247.384483,150.285443 C246.380383,149.825148 245.193255,150.265989 244.73296,151.27009 C244.713121,151.313368 244.694833,151.357341 244.678132,151.401924 Z" id="shoe" fill="#E4E4E4"/><path d="M282.770373,36.4330278 C282.770373,63 270.1536,124.970293 270.145616,130.820112 L243,130.840963 C246.973277,75.5454811 248.382172,47.5998928 247.226683,47.0041979 C245.49345,46.1106556 176.175838,53.9250306 155.386358,53.9250306 C125.407825,53.9250306 113.006307,35.0203971 112,-4.40536496e-13 L171.386358,-4.40536496e-13 C183.477954,1.29386693 246.548825,14.0152568 269.972097,18.3884129 C280,20.2606358 282.770373,29.1145109 282.770373,36.4330278 Z" id="Leg-and-Butt" fill="#2b44ff"/></g></g><g id="Body" transform="translate(-22.000000, 155.000000) scale(1 1)"><defs><path d="M8.50486985,11.3641526 C20.5328809,13.1391664 36.9471722,13.1391664 55.7504485,5 L60.0903301,21.0261575 C46.4526921,30.855406 28.3595972,37.8403661 13.9345776,35.1385465 C2.56686704,33.0093637 -1.08139191,18.2733952 8.50486985,11.3641526 Z" id="bodypointing-forward-path-1"/><path d="M65.5437498,1.98951966e-13 C67.0746794,19.6687489 74.7801887,41.3453869 81.1040065,62.7603513 C94.0105334,65.9801967 115.654578,62.1842978 146.035933,51.3734208 C153.571674,66.9635189 157.055257,78.0780631 156.486685,84.7170535 C130.420927,98.3327976 108.0808,104.402393 89.6761367,104.801687 C90.2685109,115.717837 88.9396772,126.110233 84.4739328,135.605966 C75.2946804,155.124265 21.5450578,137.048144 3.47278757,140.605966 C-7.84459943,103.85132 14.0379108,88.9143806 14.0555178,65.3966157 C14.0747993,39.6421572 34.7544101,1.98951966e-13 37.7970006,1.98951966e-13 L37.7970006,1.98951966e-13 Z" id="bodypointing-forward-path-3"/></defs><g id="Body/Pointing Forward" stroke="none" stroke-width="1" fill="none" fill-rule="evenodd"><path d="M238.556381,46.4077826 C242.889175,45.5157805 253.464286,37.6506887 255.286431,39.2475996 C257.982176,41.6101262 255.578484,48.864452 252.746364,52.4730906 C247.453134,59.2176317 243.070569,61.5240612 232.238377,64.5443446 C226.574749,66.1235046 220.451364,69.288795 213.868224,74.0402157 L213,58.7398397 L228.246523,50.3642065 C230.385826,42.2239107 232.943102,38.1282526 235.918351,38.0772323 C238.203961,37.0137608 234.223587,47.2997848 238.556381,46.4077826 Z M212.314801,11.541507 C209.515281,16.510379 206.794075,21.8627914 208.22032,23.3935933 C209.646565,24.9243953 213.203036,22.7859324 214.904525,25.3293729 C216.038851,27.0249998 209.962902,29.703613 196.676679,33.3652124 L171.455792,56.4576422 L158.638039,42.7002327 L193.347821,23.6898218 C199.119845,16.8355222 204.806897,11.5121983 210.408976,7.71984988 C212.120791,7.00519513 215.114322,6.57263502 212.314801,11.541507 Z" id="SKIN" fill="#784931"/><g id="Group-3" transform="translate(134.353117, 23.386150)"><mask id="bodypointing-forward-mask-2" fill="#ffffff"><use xlink:href="#bodypointing-forward-path-1" fill="#ffffff"/></mask><use id="Mask" fill="#e87613" transform="translate(31.545165, 20.361910) rotate(-9.000000) translate(-31.545165, -20.361910)" xlink:href="#bodypointing-forward-path-1"/></g><g id="Group-27" transform="translate(77.000000, -0.000000)"><mask id="bodypointing-forward-mask-4" fill="#ffffff"><use xlink:href="#bodypointing-forward-path-3" fill="#ffffff"/></mask><use id="Mask" fill="#ffa434" xlink:href="#bodypointing-forward-path-3"/></g></g></g></g></g><g transform="translate(170.000000, 214.000000) scale(1 1)" id="Master/Pose/Standing"><g id="Master/Pose/Standing" stroke="none" stroke-width="1" fill="none" fill-rule="evenodd"><g id="Head/Front" transform="translate(82.000000, 0.000000) scale(1 1)"><g id="Head/Front/Afro" stroke="none" stroke-width="1" fill="none" fill-rule="evenodd"><path d="M61,77.7068588 C72.4289379,77.7068588 76.5854974,64.0240838 83.0786187,56.5153483 C87.7243138,51.143002 95.6530795,52.7449442 98,45.2237762 C103.901542,26.3111237 88.1061086,13 67.5,13 C46.8938914,13 33,24.6742524 30,42.2237762 C27,59.7733 40.3938914,77.7068588 61,77.7068588 Z" id="Hair-Back" fill="#2c1b18"/><g id="Head" transform="translate(54.000000, 31.000000)" fill="#915b3c"><path d="M38.1433414,9.13393292 C43.9381521,19.9350547 43.249578,47.3329958 35.7603014,49.2634576 C32.773664,50.0333035 26.4113241,48.1475566 19.935865,44.2446031 L24,73 L0,73 L8.26160177,34.4893378 C3.65406109,29.0807313 0.535660132,22.452516 1.05677633,15.0254539 C2.55833022,-6.37502057 32.3485306,-1.66718886 38.1433414,9.13393292 Z" id="SKIN"/></g><path d="M93.5831606,40.1945268 C88.9933309,41.0561444 79.749454,45.438095 72.3793005,51.7237673 C71.507977,51.2620835 70.5087281,51 69.4466684,51 C66.0464589,51 63.2900445,53.6862915 63.2900445,57 C63.2900445,58.352507 63.7492372,59.6004922 64.5239753,60.6039629 C63.065081,63.0086601 62.0695654,65.5348236 61.7432388,68.1317726 C56.6870351,68.1317726 38.2335803,49 56.6167901,31 C75,13 101.566014,38.6959598 93.5831606,40.1945268 Z" id="Hair" fill="#2c1b18"/></g></g><g id="Bottom/Standing" transform="translate(0.000000, 187.000000) scale(1 1)"><g id="Bottom/Standing/Jogging" stroke="none" stroke-width="1" fill="none" fill-rule="evenodd"><polygon id="SKIN" fill="#784931" points="130 0 204.306413 124.226909 260.014844 229.25029 272.013946 229.25029 178.673688 5.090379e-13"/><g id="Right" transform="translate(251.000000, 218.000000)" fill="#E4E4E4"><path d="M1.67813181,6.40192425 C0.559377268,9.38841089 0,11.6229931 0,13.1056708 C0,14.908957 0.300414205,17.5404001 0.901242614,21 C2.99318117,21 21.7937852,21 57.3030548,21 C58.768738,16.1545073 57.9226607,13.5385816 54.7648228,13.1522232 C51.606985,12.7658647 48.9837155,12.4170139 46.8950143,12.1056708 L20.6799926,0.41888346 C20.1755635,0.194006431 19.584344,0.4206282 19.359467,0.925057349 C19.35562,0.933686736 19.3518954,0.94237021 19.3482945,0.951105155 L17.6632131,5.03869504 L17.6632131,5.03869504 C14.7398812,6.40265216 12.3643706,7.08463071 10.5366811,7.08463071 C9.05172687,7.08463071 7.00099246,6.48490544 4.38447792,5.28545491 L4.38448339,5.28544297 C3.38038273,4.82514778 2.19325534,5.26598921 1.73296014,6.27008987 C1.71312074,6.31336808 1.69483298,6.35734088 1.67813181,6.40192425 Z" id="shoe"/></g><path d="M244.543057,212.432889 L267.683113,205.432889 C257.544824,175.124875 245.118911,141.772016 230.405374,105.374313 C215.691837,68.97661 199.890046,33.851839 183,2.84217094e-14 L117.644073,2.84217094e-14 C136.422172,42.821022 156.329475,81.7294172 177.365982,116.725186 C198.402489,151.720954 220.794847,183.623522 244.543057,212.432889 Z" id="Pant" fill="#191847"/><path d="M125.116628,2.84217094e-14 C118.103498,43.6541888 104.577091,99.4274685 103.300563,101.148648 C102.449544,102.296102 71.8126514,112.562199 11.3898843,131.94694 L13.9818352,142.527938 C86.0358431,132.131776 124.00216,124.066006 127.880787,118.330628 C133.698727,109.72756 162.748486,41.763137 174,2.84217094e-14 L125.116628,2.84217094e-14 Z" id="SKIN" fill="#915b3c"/><path d="M32.6295078,122.800477 L37.1949469,139.841939 C91.0871466,144.568621 124.108088,141.153296 136.25777,129.595966 C148.407453,118.038636 162.254504,74.839981 177.798925,-1.13686838e-13 L115.478146,-1.13686838e-13 C105.629567,61.2838742 100.12357,93.2121259 98.9601559,95.7847551 C97.7967416,98.3573843 75.6865256,107.362625 32.6295078,122.800477 Z" id="Pant" fill="#393f82"/><g id="Left" transform="translate(15.057502, 155.157254) rotate(80.000000) translate(-15.057502, -155.157254) translate(-13.942498, 144.657254)" fill="#E4E4E4"><path d="M1.67813181,6.40192425 C0.559377268,9.38841089 0,11.6229931 0,13.1056708 C0,14.908957 0.300414205,17.5404001 0.901242614,21 C2.99318117,21 21.7937852,21 57.3030548,21 C58.768738,16.1545073 57.9226607,13.5385816 54.7648228,13.1522232 C51.606985,12.7658647 48.9837155,12.4170139 46.8950143,12.1056708 L20.6799926,0.41888346 C20.1755635,0.194006431 19.584344,0.4206282 19.359467,0.925057349 C19.35562,0.933686736 19.3518954,0.94237021 19.3482945,0.951105155 L17.6632131,5.03869504 L17.6632131,5.03869504 C14.7398812,6.40265216 12.3643706,7.08463071 10.5366811,7.08463071 C9.05172687,7.08463071 7.00099246,6.48490544 4.38447792,5.28545491 L4.38448339,5.28544297 C3.38038273,4.82514778 2.19325534,5.26598921 1.73296014,6.27008987 C1.71312074,6.31336808 1.69483298,6.35734088 1.67813181,6.40192425 Z" id="shoe"/></g></g></g><g id="Body" transform="translate(22.000000, 82.000000) scale(1 1)"><g id="Body/Jacket" stroke="none" stroke-width="1" fill="none" fill-rule="evenodd"><path d="M68.3079281,93.0198914 L89.2053198,93.1020711 C76.3021447,134.755739 69.3363474,156.856914 68.3079281,159.405597 C65.9939846,165.140133 70.8906002,173.873732 72.9845874,178.567103 C66.1645409,181.61887 66.8912241,170.316929 58.2879189,174.319492 C50.4352209,177.972846 44.4616931,184.59248 35.3890352,178.994371 C34.2736052,178.306117 33.0512757,175.714714 36.0045784,173.68967 C43.3623323,168.644547 53.9653015,159.814672 55.3979297,156.908251 C57.3515741,152.944826 61.6549068,131.648706 68.3079281,93.0198914 L68.3079281,93.0198914 Z M194.04441,89.1225115 L222.372314,116.757535 C230.61469,120.273345 237.368143,124.155511 242.632673,128.40403 C243.816587,129.832102 245.10547,132.568362 239.535214,131.343925 C233.964957,130.119488 228.050816,129.082079 227.003896,130.893567 C225.956977,132.705055 229.041811,135.480899 227.106974,137.851671 C225.817082,139.432186 221.479076,134.404878 214.092956,122.769747 L184.635682,105.402467 L194.04441,89.1225115 Z" id="SKIN" fill="#915b3c"/><path d="M122.01899,9.23199981 L130.503942,7.00082913 C148.576175,42.7520052 177.414525,74.1501034 217.01899,101.195124 L192.061793,137.56505 C151.33882,97.6857553 124.670571,55.1985909 122.01899,9.23199981 Z" id="Coat-Back" fill="#c21b15" transform="translate(169.518990, 72.282940) rotate(5.000000) translate(-169.518990, -72.282940)"/><path d="M90,114 L167,114 C149.16087,70.6251468 140.241304,33.7787236 140.241304,3.4607303 L117.014208,0 C98.7598929,29.3584068 93.6048263,65.5045499 90,114 Z" id="Shirt" fill="#C7D1D9"/><path d="M118.047752,-4.26325641e-14 C119.86198,0.0624731357 122.625282,0.175030894 126.337658,0.337673275 L126.337658,0.337673275 L131.950158,16.3768801 C132.543836,35.9324229 136.010826,75.3421183 142.351127,134.605966 L142.351127,134.605966 L91.8760675,134.60553 C92.008386,138.698782 92.2265651,142.830272 92.5306047,147 L92.5306047,147 L55,147 C60.6139164,83.6639633 81.1152373,34.6639633 116.503963,1.42108547e-14 L116.503963,1.42108547e-14 L116.522,0.017 L116.531583,-4.26325641e-14 Z" id="Coat-Front" fill="#ff4133"/><path d="M106,135 L91.889057,134.999288 C91.2713571,116.643048 92.3783198,99.0548837 95.2099449,82.2347951 C96.6469231,107.748771 100.243477,125.3371 106,135 Z" id="Shade" fill-opacity=".1" fill="#000"/><polygon id="Light" fill-opacity=".2" fill="#FFF" points="103.110899 104 128 92.4292718 128 104"/></g></g></g></g></g></svg>