<svg aria-hidden="true" preserveAspectRatio="xMidYMax slice" width="1680" height="900" fill="none" xmlns="http://www.w3.org/2000/svg"><path fill="#4A275A" d="M-.286 0h1680v900h-1680z"/><mask id="a" style="mask-type:alpha" maskUnits="userSpaceOnUse" x="-1" y="0" width="1441" height="800"><path fill="#fff" d="M-.286 0h1680v900h-1680z"/></mask><g mask="url(#a)" fill-rule="evenodd" clip-rule="evenodd"><path opacity=".05" d="m-111.097 532.732 413.009-110.666a16 16 0 0 1 15.468 4.155l49.306 49.422a16.003 16.003 0 0 1 4.133 15.424l-17.99 67.454a15.997 15.997 0 0 1-11.318 11.332L-72.28 680.728l-38.817-147.996Z" fill="url(#b)"/><path opacity=".05" d="m-226.383 428.33 413.008-110.665a16 16 0 0 1 15.469 4.154l49.306 49.423a16 16 0 0 1 4.133 15.423l-17.99 67.454a15.997 15.997 0 0 1-11.318 11.332l-413.791 110.875-38.817-147.996Z" fill="url(#c)"/><path opacity=".05" d="M1112.26 317.391c3.79-3.79 9.32-5.27 14.49-3.883l55.72 14.929a14.99 14.99 0 0 1 10.6 10.606l14.93 55.714a14.99 14.99 0 0 1-3.88 14.489l-40.79 40.786a14.983 14.983 0 0 1-14.48 3.882l-55.72-14.928a15.005 15.005 0 0 1-10.61-10.607l-14.92-55.714a14.99 14.99 0 0 1 3.88-14.489l40.78-40.785Z" fill="url(#d)"/><path opacity=".05" d="M1226.89 426.438a15.007 15.007 0 0 1 14.49-3.882l55.72 14.928a14.99 14.99 0 0 1 10.6 10.607l14.93 55.714a14.991 14.991 0 0 1-3.88 14.489l-40.79 40.785a14.999 14.999 0 0 1-14.49 3.883l-55.71-14.929a15.003 15.003 0 0 1-10.61-10.607l-14.92-55.714a14.991 14.991 0 0 1 3.88-14.489l40.78-40.785Z" fill="url(#e)"/><path opacity=".05" d="M1257.15 278.568c3.79-3.79 9.32-5.27 14.49-3.883l55.72 14.929a14.99 14.99 0 0 1 10.6 10.607l14.93 55.714a14.991 14.991 0 0 1-3.88 14.489l-40.79 40.785a14.999 14.999 0 0 1-14.49 3.882l-55.71-14.928a15.003 15.003 0 0 1-10.61-10.607l-14.93-55.714a15.02 15.02 0 0 1 3.89-14.489l40.78-40.785Z" fill="url(#f)"/></g><defs><linearGradient id="b" x1="353.446" y1="408.469" x2="-110.586" y2="532.806" gradientUnits="userSpaceOnUse"><stop stop-color="#fff"/><stop offset="1" stop-color="#fff" stop-opacity=".01"/></linearGradient><linearGradient id="c" x1="238.16" y1="304.067" x2="-225.872" y2="428.404" gradientUnits="userSpaceOnUse"><stop stop-color="#fff"/><stop offset="1" stop-color="#fff" stop-opacity=".01"/></linearGradient><linearGradient id="d" x1="1190.88" y1="292.048" x2="1046.38" y2="330.768" gradientUnits="userSpaceOnUse"><stop stop-color="#fff"/><stop offset="1" stop-color="#fff" stop-opacity=".01"/></linearGradient><linearGradient id="e" x1="1305.51" y1="401.096" x2="1161.01" y2="439.815" gradientUnits="userSpaceOnUse"><stop stop-color="#fff"/><stop offset="1" stop-color="#fff" stop-opacity=".01"/></linearGradient><linearGradient id="f" x1="1335.77" y1="253.226" x2="1191.27" y2="291.945" gradientUnits="userSpaceOnUse"><stop stop-color="#fff"/><stop offset="1" stop-color="#fff" stop-opacity=".01"/></linearGradient></defs></svg>