<svg width="43" height="40" viewBox="0 0 43 40" fill="none" xmlns="http://www.w3.org/2000/svg">
<rect opacity="0.1" width="42" height="40" rx="20" fill="#5A7184"/>
<path d="M27.3333 13.333H15.302C14.7708 13.333 14.3333 13.8018 14.3333 14.3643V26.333C14.3333 26.8955 14.7708 27.333 15.302 27.333H27.3333C27.8645 27.333 28.3333 26.8955 28.3333 26.333V14.3643C28.3333 13.8018 27.8645 13.333 27.3333 13.333ZM18.552 25.333H16.4895V18.6768H18.552V25.333ZM17.5208 17.7393C16.8333 17.7393 16.302 17.208 16.302 16.5518C16.302 15.8955 16.8333 15.333 17.5208 15.333C18.177 15.333 18.7083 15.8955 18.7083 16.5518C18.7083 17.208 18.177 17.7393 17.5208 17.7393ZM26.3333 25.333H24.2395V22.083C24.2395 21.333 24.2395 20.333 23.177 20.333C22.0833 20.333 21.927 21.1768 21.927 22.0518V25.333H19.8645V18.6768H21.8333V19.583H21.8645C22.1458 19.0518 22.8333 18.4893 23.8333 18.4893C25.927 18.4893 26.3333 19.8955 26.3333 21.6768V25.333Z" fill="#5A7184"/>
</svg>