<svg role="img" xmlns="http://www.w3.org/2000/svg" xmlns:xlink="http://www.w3.org/1999/xlink" width="187.5" viewBox="0 0 187.5 30" height="30" version="1.0"><defs><g id="a"><path d="M 6.015625 -6.6875 L 10.75 -6.6875 L 10.75 -0.515625 C 9.976562 -0.265625 9.253906 -0.09375 8.578125 0 C 7.898438 0.101562 7.210938 0.15625 6.515625 0.15625 C 4.710938 0.15625 3.335938 -0.367188 2.390625 -1.421875 C 1.441406 -2.472656 0.96875 -3.988281 0.96875 -5.96875 C 0.96875 -7.894531 1.515625 -9.394531 2.609375 -10.46875 C 3.710938 -11.539062 5.238281 -12.078125 7.1875 -12.078125 C 8.414062 -12.078125 9.597656 -11.832031 10.734375 -11.34375 L 9.890625 -9.328125 C 9.023438 -9.765625 8.117188 -9.984375 7.171875 -9.984375 C 6.085938 -9.984375 5.210938 -9.613281 4.546875 -8.875 C 3.890625 -8.144531 3.5625 -7.160156 3.5625 -5.921875 C 3.5625 -4.628906 3.828125 -3.640625 4.359375 -2.953125 C 4.890625 -2.273438 5.660156 -1.9375 6.671875 -1.9375 C 7.203125 -1.9375 7.738281 -1.992188 8.28125 -2.109375 L 8.28125 -4.59375 L 6.015625 -4.59375 Z M 6.015625 -6.6875"/></g><g id="b"><path d="M 6.390625 -9.28125 C 6.722656 -9.28125 7.003906 -9.253906 7.234375 -9.203125 L 7.046875 -6.875 C 6.835938 -6.925781 6.59375 -6.953125 6.3125 -6.953125 C 5.507812 -6.953125 4.882812 -6.75 4.4375 -6.34375 C 4 -5.9375 3.78125 -5.367188 3.78125 -4.640625 L 3.78125 0 L 1.296875 0 L 1.296875 -9.109375 L 3.1875 -9.109375 L 3.546875 -7.578125 L 3.671875 -7.578125 C 3.953125 -8.085938 4.332031 -8.5 4.8125 -8.8125 C 5.300781 -9.125 5.828125 -9.28125 6.390625 -9.28125 Z M 6.390625 -9.28125"/></g><g id="c"><path d="M 5.078125 -7.515625 C 4.546875 -7.515625 4.128906 -7.347656 3.828125 -7.015625 C 3.535156 -6.679688 3.367188 -6.207031 3.328125 -5.59375 L 6.8125 -5.59375 C 6.800781 -6.207031 6.640625 -6.679688 6.328125 -7.015625 C 6.015625 -7.347656 5.597656 -7.515625 5.078125 -7.515625 Z M 5.421875 0.15625 C 3.960938 0.15625 2.816406 -0.242188 1.984375 -1.046875 C 1.160156 -1.859375 0.75 -3.003906 0.75 -4.484375 C 0.75 -6.015625 1.128906 -7.195312 1.890625 -8.03125 C 2.660156 -8.863281 3.71875 -9.28125 5.0625 -9.28125 C 6.34375 -9.28125 7.34375 -8.910156 8.0625 -8.171875 C 8.78125 -7.441406 9.140625 -6.429688 9.140625 -5.140625 L 9.140625 -3.9375 L 3.265625 -3.9375 C 3.296875 -3.226562 3.503906 -2.675781 3.890625 -2.28125 C 4.285156 -1.882812 4.835938 -1.6875 5.546875 -1.6875 C 6.085938 -1.6875 6.601562 -1.742188 7.09375 -1.859375 C 7.582031 -1.972656 8.09375 -2.15625 8.625 -2.40625 L 8.625 -0.484375 C 8.195312 -0.265625 7.734375 -0.101562 7.234375 0 C 6.742188 0.101562 6.140625 0.15625 5.421875 0.15625 Z M 5.421875 0.15625"/></g><g id="d"><path d="M 0 -9.109375 L 2.71875 -9.109375 L 4.4375 -3.984375 C 4.582031 -3.535156 4.6875 -3.007812 4.75 -2.40625 L 4.796875 -2.40625 C 4.847656 -2.96875 4.960938 -3.492188 5.140625 -3.984375 L 6.828125 -9.109375 L 9.5 -9.109375 L 5.640625 1.171875 C 5.285156 2.117188 4.78125 2.828125 4.125 3.296875 C 3.46875 3.773438 2.703125 4.015625 1.828125 4.015625 C 1.398438 4.015625 0.984375 3.96875 0.578125 3.875 L 0.578125 1.90625 C 0.867188 1.96875 1.191406 2 1.546875 2 C 1.984375 2 2.363281 1.863281 2.6875 1.59375 C 3.019531 1.332031 3.28125 0.929688 3.46875 0.390625 L 3.625 -0.0625 Z M 0 -9.109375"/></g><g id="e"><path d="M 7.65625 -2.703125 C 7.65625 -1.765625 7.332031 -1.050781 6.6875 -0.5625 C 6.039062 -0.0820312 5.066406 0.15625 3.765625 0.15625 C 3.109375 0.15625 2.546875 0.109375 2.078125 0.015625 C 1.609375 -0.0664062 1.171875 -0.191406 0.765625 -0.359375 L 0.765625 -2.421875 C 1.222656 -2.203125 1.738281 -2.019531 2.3125 -1.875 C 2.894531 -1.726562 3.410156 -1.65625 3.859375 -1.65625 C 4.753906 -1.65625 5.203125 -1.914062 5.203125 -2.4375 C 5.203125 -2.632812 5.140625 -2.789062 5.015625 -2.90625 C 4.898438 -3.03125 4.695312 -3.171875 4.40625 -3.328125 C 4.113281 -3.484375 3.722656 -3.664062 3.234375 -3.875 C 2.535156 -4.164062 2.019531 -4.4375 1.6875 -4.6875 C 1.363281 -4.9375 1.125 -5.222656 0.96875 -5.546875 C 0.820312 -5.867188 0.75 -6.265625 0.75 -6.734375 C 0.75 -7.546875 1.0625 -8.171875 1.6875 -8.609375 C 2.3125 -9.054688 3.203125 -9.28125 4.359375 -9.28125 C 5.453125 -9.28125 6.519531 -9.039062 7.5625 -8.5625 L 6.8125 -6.765625 C 6.351562 -6.960938 5.925781 -7.125 5.53125 -7.25 C 5.132812 -7.375 4.726562 -7.4375 4.3125 -7.4375 C 3.582031 -7.4375 3.21875 -7.238281 3.21875 -6.84375 C 3.21875 -6.625 3.332031 -6.429688 3.5625 -6.265625 C 3.800781 -6.097656 4.320312 -5.859375 5.125 -5.546875 C 5.832031 -5.253906 6.351562 -4.984375 6.6875 -4.734375 C 7.019531 -4.484375 7.265625 -4.191406 7.421875 -3.859375 C 7.578125 -3.535156 7.65625 -3.148438 7.65625 -2.703125 Z M 7.65625 -2.703125"/></g><g id="f"><path d="M 9.71875 0 L 7.234375 0 L 7.234375 -5.328125 C 7.234375 -6.640625 6.742188 -7.296875 5.765625 -7.296875 C 5.066406 -7.296875 4.5625 -7.054688 4.25 -6.578125 C 3.9375 -6.109375 3.78125 -5.34375 3.78125 -4.28125 L 3.78125 0 L 1.296875 0 L 1.296875 -12.671875 L 3.78125 -12.671875 L 3.78125 -10.09375 C 3.78125 -9.894531 3.765625 -9.421875 3.734375 -8.671875 L 3.671875 -7.9375 L 3.8125 -7.9375 C 4.363281 -8.832031 5.238281 -9.28125 6.4375 -9.28125 C 7.507812 -9.28125 8.320312 -8.988281 8.875 -8.40625 C 9.4375 -7.832031 9.71875 -7.007812 9.71875 -5.9375 Z M 9.71875 0"/></g><g id="g"><path d="M 3.28125 -4.578125 C 3.28125 -3.671875 3.425781 -2.984375 3.71875 -2.515625 C 4.019531 -2.054688 4.503906 -1.828125 5.171875 -1.828125 C 5.835938 -1.828125 6.316406 -2.054688 6.609375 -2.515625 C 6.898438 -2.972656 7.046875 -3.660156 7.046875 -4.578125 C 7.046875 -5.472656 6.894531 -6.144531 6.59375 -6.59375 C 6.300781 -7.050781 5.820312 -7.28125 5.15625 -7.28125 C 4.488281 -7.28125 4.007812 -7.054688 3.71875 -6.609375 C 3.425781 -6.160156 3.28125 -5.484375 3.28125 -4.578125 Z M 9.578125 -4.578125 C 9.578125 -3.085938 9.1875 -1.925781 8.40625 -1.09375 C 7.625 -0.257812 6.535156 0.15625 5.140625 0.15625 C 4.265625 0.15625 3.492188 -0.03125 2.828125 -0.40625 C 2.160156 -0.789062 1.644531 -1.34375 1.28125 -2.0625 C 0.925781 -2.78125 0.75 -3.617188 0.75 -4.578125 C 0.75 -6.054688 1.132812 -7.207031 1.90625 -8.03125 C 2.6875 -8.863281 3.78125 -9.28125 5.1875 -9.28125 C 6.0625 -9.28125 6.832031 -9.085938 7.5 -8.703125 C 8.164062 -8.328125 8.675781 -7.78125 9.03125 -7.0625 C 9.394531 -6.351562 9.578125 -5.523438 9.578125 -4.578125 Z M 9.578125 -4.578125"/></g><g id="i"><path d="M 8.796875 0 L 7.921875 -2.828125 L 3.578125 -2.828125 L 2.71875 0 L 0 0 L 4.203125 -11.96875 L 7.296875 -11.96875 L 11.515625 0 Z M 7.328125 -4.953125 C 6.523438 -7.523438 6.070312 -8.976562 5.96875 -9.3125 C 5.875 -9.644531 5.804688 -9.910156 5.765625 -10.109375 C 5.578125 -9.410156 5.0625 -7.691406 4.21875 -4.953125 Z M 7.328125 -4.953125"/></g><g id="j"><path d="M 5 0.15625 C 2.164062 0.15625 0.75 -1.394531 0.75 -4.5 C 0.75 -6.050781 1.132812 -7.234375 1.90625 -8.046875 C 2.675781 -8.867188 3.78125 -9.28125 5.21875 -9.28125 C 6.269531 -9.28125 7.21875 -9.070312 8.0625 -8.65625 L 7.328125 -6.734375 C 6.929688 -6.890625 6.566406 -7.019531 6.234375 -7.125 C 5.898438 -7.226562 5.5625 -7.28125 5.21875 -7.28125 C 3.925781 -7.28125 3.28125 -6.359375 3.28125 -4.515625 C 3.28125 -2.734375 3.925781 -1.84375 5.21875 -1.84375 C 5.695312 -1.84375 6.140625 -1.90625 6.546875 -2.03125 C 6.953125 -2.164062 7.359375 -2.367188 7.765625 -2.640625 L 7.765625 -0.515625 C 7.367188 -0.253906 6.960938 -0.078125 6.546875 0.015625 C 6.140625 0.109375 5.625 0.15625 5 0.15625 Z M 5 0.15625"/></g><g id="k"><path d="M 1.203125 -11.46875 C 1.203125 -12.269531 1.648438 -12.671875 2.546875 -12.671875 C 3.453125 -12.671875 3.90625 -12.269531 3.90625 -11.46875 C 3.90625 -11.082031 3.789062 -10.78125 3.5625 -10.5625 C 3.34375 -10.351562 3.003906 -10.25 2.546875 -10.25 C 1.648438 -10.25 1.203125 -10.65625 1.203125 -11.46875 Z M 3.78125 0 L 1.296875 0 L 1.296875 -9.109375 L 3.78125 -9.109375 Z M 3.78125 0"/></g><g id="l"><path d="M 7.09375 0 L 6.609375 -1.234375 L 6.546875 -1.234375 C 6.128906 -0.710938 5.695312 -0.347656 5.25 -0.140625 C 4.8125 0.0546875 4.234375 0.15625 3.515625 0.15625 C 2.640625 0.15625 1.953125 -0.09375 1.453125 -0.59375 C 0.953125 -1.09375 0.703125 -1.800781 0.703125 -2.71875 C 0.703125 -3.6875 1.039062 -4.398438 1.71875 -4.859375 C 2.394531 -5.316406 3.414062 -5.570312 4.78125 -5.625 L 6.359375 -5.671875 L 6.359375 -6.078125 C 6.359375 -6.992188 5.882812 -7.453125 4.9375 -7.453125 C 4.207031 -7.453125 3.351562 -7.234375 2.375 -6.796875 L 1.546875 -8.46875 C 2.597656 -9.019531 3.757812 -9.296875 5.03125 -9.296875 C 6.257812 -9.296875 7.195312 -9.03125 7.84375 -8.5 C 8.5 -7.96875 8.828125 -7.160156 8.828125 -6.078125 L 8.828125 0 Z M 6.359375 -4.21875 L 5.390625 -4.1875 C 4.671875 -4.164062 4.132812 -4.035156 3.78125 -3.796875 C 3.425781 -3.554688 3.25 -3.191406 3.25 -2.703125 C 3.25 -2.003906 3.648438 -1.65625 4.453125 -1.65625 C 5.035156 -1.65625 5.5 -1.816406 5.84375 -2.140625 C 6.1875 -2.472656 6.359375 -2.914062 6.359375 -3.46875 Z M 6.359375 -4.21875"/></g><g id="m"><path d="M 5.140625 -1.8125 C 5.578125 -1.8125 6.097656 -1.910156 6.703125 -2.109375 L 6.703125 -0.25 C 6.085938 0.0195312 5.328125 0.15625 4.421875 0.15625 C 3.429688 0.15625 2.707031 -0.09375 2.25 -0.59375 C 1.800781 -1.09375 1.578125 -1.847656 1.578125 -2.859375 L 1.578125 -7.25 L 0.390625 -7.25 L 0.390625 -8.296875 L 1.75 -9.125 L 2.46875 -11.046875 L 4.0625 -11.046875 L 4.0625 -9.109375 L 6.609375 -9.109375 L 6.609375 -7.25 L 4.0625 -7.25 L 4.0625 -2.859375 C 4.0625 -2.503906 4.160156 -2.238281 4.359375 -2.0625 C 4.554688 -1.894531 4.816406 -1.8125 5.140625 -1.8125 Z M 5.140625 -1.8125"/></g></defs><g fill="#FFF"><use x="4.003" y="20.684" xmlns:xlink="http://www.w3.org/1999/xlink" xlink:href="#a" xlink:type="simple" xlink:actuate="onLoad" xlink:show="embed"/></g><g fill="#FFF"><use x="16.166" y="20.684" xmlns:xlink="http://www.w3.org/1999/xlink" xlink:href="#b" xlink:type="simple" xlink:actuate="onLoad" xlink:show="embed"/></g><g fill="#FFF"><use x="23.824" y="20.684" xmlns:xlink="http://www.w3.org/1999/xlink" xlink:href="#c" xlink:type="simple" xlink:actuate="onLoad" xlink:show="embed"/></g><g fill="#FFF"><use x="33.763" y="20.684" xmlns:xlink="http://www.w3.org/1999/xlink" xlink:href="#d" xlink:type="simple" xlink:actuate="onLoad" xlink:show="embed"/></g><g fill="#FFF"><use x="43.336" y="20.684" xmlns:xlink="http://www.w3.org/1999/xlink" xlink:href="#e" xlink:type="simple" xlink:actuate="onLoad" xlink:show="embed"/></g><g fill="#FFF"><use x="51.711" y="20.684" xmlns:xlink="http://www.w3.org/1999/xlink" xlink:href="#f" xlink:type="simple" xlink:actuate="onLoad" xlink:show="embed"/></g><g fill="#FFF"><use x="62.758" y="20.684" xmlns:xlink="http://www.w3.org/1999/xlink" xlink:href="#g" xlink:type="simple" xlink:actuate="onLoad" xlink:show="embed"/></g><g fill="#FFF"><use x="73.169" y="20.684" xmlns:xlink="http://www.w3.org/1999/xlink" xlink:href="#b" xlink:type="simple" xlink:actuate="onLoad" xlink:show="embed"/></g><g fill="#FFF"><use x="80.828" y="20.684" xmlns:xlink="http://www.w3.org/1999/xlink" xlink:href="#c" xlink:type="simple" xlink:actuate="onLoad" xlink:show="embed"/></g><g fill="#FFF"><use x="90.767" y="20.684" xmlns:xlink="http://www.w3.org/1999/xlink" xlink:href="#h" xlink:type="simple" xlink:actuate="onLoad" xlink:show="embed"/></g><g fill="#FFF"><use x="95.183" y="20.684" xmlns:xlink="http://www.w3.org/1999/xlink" xlink:href="#i" xlink:type="simple" xlink:actuate="onLoad" xlink:show="embed"/></g><g fill="#FFF"><use x="106.776" y="20.684" xmlns:xlink="http://www.w3.org/1999/xlink" xlink:href="#e" xlink:type="simple" xlink:actuate="onLoad" xlink:show="embed"/></g><g fill="#FFF"><use x="115.151" y="20.684" xmlns:xlink="http://www.w3.org/1999/xlink" xlink:href="#e" xlink:type="simple" xlink:actuate="onLoad" xlink:show="embed"/></g><g fill="#FFF"><use x="123.526" y="20.684" xmlns:xlink="http://www.w3.org/1999/xlink" xlink:href="#g" xlink:type="simple" xlink:actuate="onLoad" xlink:show="embed"/></g><g fill="#FFF"><use x="133.938" y="20.684" xmlns:xlink="http://www.w3.org/1999/xlink" xlink:href="#j" xlink:type="simple" xlink:actuate="onLoad" xlink:show="embed"/></g><g fill="#FFF"><use x="142.598" y="20.684" xmlns:xlink="http://www.w3.org/1999/xlink" xlink:href="#k" xlink:type="simple" xlink:actuate="onLoad" xlink:show="embed"/></g><g fill="#FFF"><use x="147.772" y="20.684" xmlns:xlink="http://www.w3.org/1999/xlink" xlink:href="#l" xlink:type="simple" xlink:actuate="onLoad" xlink:show="embed"/></g><g fill="#FFF"><use x="157.931" y="20.684" xmlns:xlink="http://www.w3.org/1999/xlink" xlink:href="#m" xlink:type="simple" xlink:actuate="onLoad" xlink:show="embed"/></g><g fill="#FFF"><use x="165.256" y="20.684" xmlns:xlink="http://www.w3.org/1999/xlink" xlink:href="#c" xlink:type="simple" xlink:actuate="onLoad" xlink:show="embed"/></g><g fill="#FFF"><use x="175.195" y="20.684" xmlns:xlink="http://www.w3.org/1999/xlink" xlink:href="#e" xlink:type="simple" xlink:actuate="onLoad" xlink:show="embed"/></g></svg>