<svg xmlns="http://www.w3.org/2000/svg" xmlns:xlink="http://www.w3.org/1999/xlink" width="187.5" height="30" version="1.0"><defs><path d="M6.016-6.688h4.734v6.172c-.773.25-1.496.422-2.172.516-.68.102-1.367.156-2.062.156-1.805 0-3.18-.523-4.125-1.578C1.44-2.472.969-3.988.969-5.969c0-1.926.547-3.426 1.64-4.5 1.102-1.07 2.63-1.61 4.579-1.61 1.226 0 2.41.247 3.546.735l-.843 2.016a5.96 5.96 0 0 0-2.72-.656c-1.085 0-1.96.37-2.624 1.109-.656.73-.984 1.715-.984 2.953 0 1.293.265 2.281.796 2.969.532.68 1.301 1.015 2.313 1.015.531 0 1.066-.054 1.61-.171v-2.485H6.015Zm0 0" id="a"/><path d="M6.39-9.281c.333 0 .614.027.844.078l-.187 2.328a3.136 3.136 0 0 0-.734-.078c-.805 0-1.43.203-1.875.61-.438.405-.657.976-.657 1.702V0H1.297v-9.11h1.89l.36 1.532h.125c.281-.508.66-.922 1.14-1.234a2.877 2.877 0 0 1 1.579-.47Zm0 0" id="b"/><path d="M5.078-7.516c-.531 0-.95.168-1.25.5-.293.336-.46.809-.5 1.422h3.485C6.8-6.207 6.64-6.68 6.327-7.016c-.312-.332-.73-.5-1.25-.5ZM5.422.156c-1.461 0-2.606-.398-3.438-1.203C1.16-1.859.75-3.004.75-4.484c0-1.532.379-2.711 1.14-3.547.77-.832 1.829-1.25 3.173-1.25 1.28 0 2.28.37 3 1.11.718.73 1.078 1.741 1.078 3.03v1.204H3.266c.03.71.238 1.261.625 1.656.394.398.945.594 1.656.594.539 0 1.055-.055 1.547-.172a7.72 7.72 0 0 0 1.531-.547v1.922c-.43.218-.89.382-1.39.484-.493.102-1.094.156-1.813.156Zm0 0" id="c"/><path d="M0-9.11h2.719l1.719 5.126c.144.449.25.976.312 1.578h.047c.05-.563.164-1.086.344-1.578L6.828-9.11H9.5L5.64 1.17c-.355.946-.859 1.657-1.515 2.126-.656.476-1.422.719-2.297.719-.43 0-.844-.047-1.25-.141V1.906c.29.063.613.094.969.094.437 0 .816-.137 1.14-.406.333-.262.594-.664.782-1.203l.156-.454Zm0 0" id="d"/><path d="M7.656-2.703c0 .937-.324 1.652-.968 2.14-.649.481-1.622.72-2.922.72-.657 0-1.22-.048-1.688-.141A6.24 6.24 0 0 1 .766-.36v-2.063c.457.219.972.402 1.546.547a6.328 6.328 0 0 0 1.547.219c.895 0 1.344-.258 1.344-.782a.612.612 0 0 0-.187-.468c-.118-.125-.32-.266-.61-.422a16.653 16.653 0 0 0-1.172-.547c-.699-.29-1.214-.563-1.546-.813a2.401 2.401 0 0 1-.72-.859C.82-5.867.75-6.266.75-6.734c0-.813.313-1.438.938-1.875.625-.446 1.515-.672 2.671-.672 1.094 0 2.16.242 3.204.719l-.75 1.796c-.461-.195-.887-.359-1.282-.484a4.049 4.049 0 0 0-1.218-.188c-.731 0-1.094.2-1.094.594 0 .219.113.414.344.578.238.168.757.407 1.562.72.707.292 1.227.562 1.563.812.332.25.578.543.734.875.156.324.234.71.234 1.156Zm0 0" id="e"/><path d="M9.719 0H7.234v-5.328c0-1.313-.492-1.969-1.468-1.969-.7 0-1.204.242-1.516.719-.313.469-.469 1.234-.469 2.297V0H1.297v-12.672H3.78v2.578c0 .2-.015.672-.047 1.422l-.062.735h.14c.551-.895 1.426-1.344 2.626-1.344 1.07 0 1.882.293 2.437.875.563.574.844 1.398.844 2.469Zm0 0" id="f"/><path d="M3.281-4.578c0 .906.145 1.594.438 2.062.3.461.785.688 1.453.688.664 0 1.144-.227 1.437-.688.29-.457.438-1.144.438-2.062 0-.895-.152-1.567-.453-2.016C6.3-7.05 5.82-7.28 5.156-7.28c-.668 0-1.148.226-1.437.672-.293.449-.438 1.125-.438 2.03Zm6.297 0c0 1.492-.39 2.652-1.172 3.484-.781.836-1.87 1.25-3.265 1.25-.875 0-1.649-.187-2.313-.562a3.872 3.872 0 0 1-1.547-1.656C.926-2.782.75-3.617.75-4.579c0-1.477.383-2.629 1.156-3.453.782-.832 1.875-1.25 3.282-1.25.875 0 1.644.195 2.312.578a3.734 3.734 0 0 1 1.531 1.64c.364.711.547 1.54.547 2.485Zm0 0" id="g"/><path d="m8.797 0-.875-2.828H3.578L2.718 0H0l4.203-11.969h3.094L11.516 0ZM7.328-4.953a971.61 971.61 0 0 1-1.36-4.36 10.983 10.983 0 0 1-.202-.796c-.188.699-.704 2.418-1.547 5.156Zm0 0" id="h"/><path d="M5 .156C2.164.156.75-1.394.75-4.5c0-1.55.383-2.734 1.156-3.547.77-.82 1.875-1.234 3.313-1.234 1.05 0 2 .21 2.843.625l-.734 1.922a17.599 17.599 0 0 0-1.094-.391 3.484 3.484 0 0 0-1.015-.156c-1.293 0-1.938.922-1.938 2.765 0 1.782.645 2.672 1.938 2.672a4.51 4.51 0 0 0 1.328-.187 4.938 4.938 0 0 0 1.219-.61v2.125a3.704 3.704 0 0 1-1.22.532c-.405.093-.921.14-1.546.14Zm0 0" id="i"/><path d="M1.203-11.469c0-.8.445-1.203 1.344-1.203.906 0 1.36.402 1.36 1.203 0 .387-.118.688-.345.906-.218.211-.558.313-1.015.313-.899 0-1.344-.406-1.344-1.219ZM3.781 0H1.297v-9.11H3.78Zm0 0" id="j"/><path d="m7.094 0-.485-1.234h-.062c-.418.523-.852.886-1.297 1.093-.438.196-1.016.297-1.734.297-.875 0-1.563-.25-2.063-.75-.5-.5-.75-1.207-.75-2.125 0-.969.336-1.68 1.016-2.14.676-.457 1.695-.711 3.062-.766l1.578-.047v-.406c0-.914-.476-1.375-1.421-1.375-.731 0-1.586.219-2.563.656l-.828-1.672c1.05-.55 2.21-.828 3.484-.828 1.227 0 2.164.266 2.813.797.656.531.984 1.34.984 2.422V0Zm-.735-4.219-.968.032c-.72.023-1.258.152-1.61.39-.355.242-.531.606-.531 1.094 0 .7.398 1.047 1.203 1.047.582 0 1.047-.16 1.39-.485.345-.332.516-.773.516-1.328Zm0 0" id="k"/><path d="M5.14-1.813c.438 0 .958-.097 1.563-.296V-.25c-.617.27-1.375.406-2.281.406-.992 0-1.715-.25-2.172-.75-.45-.5-.672-1.254-.672-2.265V-7.25H.391v-1.047l1.359-.828.719-1.922h1.594v1.938h2.546v1.859H4.063v4.39c0 .356.097.622.296.797.196.168.457.25.782.25Zm0 0" id="l"/></defs><use x="4.003" y="20.684" xmlns:xlink="http://www.w3.org/1999/xlink" xlink:href="#a" xlink:type="simple" xlink:actuate="onLoad" xlink:show="embed" fill="#FFF"/><use x="16.166" y="20.684" xmlns:xlink="http://www.w3.org/1999/xlink" xlink:href="#b" xlink:type="simple" xlink:actuate="onLoad" xlink:show="embed" fill="#FFF"/><use x="23.824" y="20.684" xmlns:xlink="http://www.w3.org/1999/xlink" xlink:href="#c" xlink:type="simple" xlink:actuate="onLoad" xlink:show="embed" fill="#FFF"/><use x="33.763" y="20.684" xmlns:xlink="http://www.w3.org/1999/xlink" xlink:href="#d" xlink:type="simple" xlink:actuate="onLoad" xlink:show="embed" fill="#FFF"/><use x="43.336" y="20.684" xmlns:xlink="http://www.w3.org/1999/xlink" xlink:href="#e" xlink:type="simple" xlink:actuate="onLoad" xlink:show="embed" fill="#FFF"/><use x="51.711" y="20.684" xmlns:xlink="http://www.w3.org/1999/xlink" xlink:href="#f" xlink:type="simple" xlink:actuate="onLoad" xlink:show="embed" fill="#FFF"/><use x="62.758" y="20.684" xmlns:xlink="http://www.w3.org/1999/xlink" xlink:href="#g" xlink:type="simple" xlink:actuate="onLoad" xlink:show="embed" fill="#FFF"/><use x="73.169" y="20.684" xmlns:xlink="http://www.w3.org/1999/xlink" xlink:href="#b" xlink:type="simple" xlink:actuate="onLoad" xlink:show="embed" fill="#FFF"/><use x="80.828" y="20.684" xmlns:xlink="http://www.w3.org/1999/xlink" xlink:href="#c" xlink:type="simple" xlink:actuate="onLoad" xlink:show="embed" fill="#FFF"/><use x="90.767" y="20.684" xmlns:xlink="http://www.w3.org/1999/xlink" xlink:href="#h" xlink:type="simple" xlink:actuate="onLoad" xlink:show="embed" fill="#FFF"/><use x="95.183" y="20.684" xmlns:xlink="http://www.w3.org/1999/xlink" xlink:href="#h" xlink:type="simple" xlink:actuate="onLoad" xlink:show="embed" fill="#FFF"/><use x="106.776" y="20.684" xmlns:xlink="http://www.w3.org/1999/xlink" xlink:href="#e" xlink:type="simple" xlink:actuate="onLoad" xlink:show="embed" fill="#FFF"/><use x="115.151" y="20.684" xmlns:xlink="http://www.w3.org/1999/xlink" xlink:href="#e" xlink:type="simple" xlink:actuate="onLoad" xlink:show="embed" fill="#FFF"/><use x="123.526" y="20.684" xmlns:xlink="http://www.w3.org/1999/xlink" xlink:href="#g" xlink:type="simple" xlink:actuate="onLoad" xlink:show="embed" fill="#FFF"/><use x="133.938" y="20.684" xmlns:xlink="http://www.w3.org/1999/xlink" xlink:href="#i" xlink:type="simple" xlink:actuate="onLoad" xlink:show="embed" fill="#FFF"/><use x="142.598" y="20.684" xmlns:xlink="http://www.w3.org/1999/xlink" xlink:href="#j" xlink:type="simple" xlink:actuate="onLoad" xlink:show="embed" fill="#FFF"/><use x="147.772" y="20.684" xmlns:xlink="http://www.w3.org/1999/xlink" xlink:href="#k" xlink:type="simple" xlink:actuate="onLoad" xlink:show="embed" fill="#FFF"/><use x="157.931" y="20.684" xmlns:xlink="http://www.w3.org/1999/xlink" xlink:href="#l" xlink:type="simple" xlink:actuate="onLoad" xlink:show="embed" fill="#FFF"/><use x="165.256" y="20.684" xmlns:xlink="http://www.w3.org/1999/xlink" xlink:href="#c" xlink:type="simple" xlink:actuate="onLoad" xlink:show="embed" fill="#FFF"/><use x="175.195" y="20.684" xmlns:xlink="http://www.w3.org/1999/xlink" xlink:href="#e" xlink:type="simple" xlink:actuate="onLoad" xlink:show="embed" fill="#FFF"/></svg>