<svg title="medium" width="43" height="40" viewBox="0 0 43 40" fill="none" xmlns="http://www.w3.org/2000/svg">
<rect opacity="0.1" width="42" height="40" rx="20" fill="#5A7184"/>
<path fill-rule="evenodd" clip-rule="evenodd" d="M20.5 10C15.2544 10 11 14.2528 11 19.5C11 24.7464 15.2544 29 20.5 29C25.7464 29 30 24.7464 30 19.5C30 14.2528 25.7464 10 20.5 10ZM26.0211 23.8993V23.7133L25.1566 22.8646C25.0806 22.8068 25.0426 22.711 25.0584 22.6168V16.3832C25.0426 16.289 25.0806 16.1932 25.1566 16.1354L26.0417 15.2868V15.1007H22.9787L20.7953 20.5474L18.311 15.1007H15.0977V15.2868L16.1332 16.5336C16.2345 16.6247 16.2867 16.7593 16.2725 16.8954V21.7943C16.3026 21.9708 16.2472 22.1513 16.1229 22.2803L14.9583 23.6927V23.8787H18.2596V23.6927L17.095 22.2803C16.97 22.1513 16.9106 21.9724 16.9351 21.7943V17.5573L19.8326 23.8787H20.1691L22.6573 17.5573V22.5962C22.6573 22.7308 22.6573 22.7561 22.5694 22.844L21.6748 23.7133V23.8993H26.0211Z" fill="#5A7184"/>
</svg>