<svg title="{{ item.data.permalink }}" aria-hidden="true" focusable="false" width="1200pt" height="1200pt" version="1.1" viewBox="0 0 1200 1200" xmlns="http://www.w3.org/2000/svg">
 <path d="m474 963.6c-61.199 0-121.2-25.199-166.8-72-45.602-43.199-69.602-99.602-70.801-162 0-117.6 112.8-230.4 242.4-241.2h8.3984c61.199 0 106.8 25.199 147.6 46.801 31.199 16.801 57.602 31.199 85.199 31.199 24 0 46.801-12 72-37.199 20.398-20.398 30-48 26.398-74.398-3.6016-24-18-45.602-39.602-58.801-18-10.801-36-15.602-54-15.602-38.398 0-68.398 26.398-86.398 48-16.801 19.199-33.602 28.801-54 28.801-10.801 0-21.602-2.3984-32.398-8.3984-19.199-9.6016-31.199-21.602-36-37.199-4.8008-14.398-2.3984-31.199 6-46.801 32.398-60 80.398-100.8 138-117.6 21.602-6 43.199-9.6016 66-9.6016 61.199 0 121.2 25.199 166.8 72 45.602 43.199 69.602 99.602 70.801 162 0 117.6-112.8 230.4-242.4 241.2h-8.3984c-61.199 0-106.8-25.199-147.6-46.801-31.199-16.801-57.602-31.199-85.199-31.199-24 0-46.801 12-72 37.199-20.398 20.398-30 48-26.398 74.398 3.6016 24 18 45.602 39.602 58.801 18 10.801 36 15.602 54 15.602 38.398 0 68.398-26.398 86.398-48 16.801-19.199 33.602-28.801 54-28.801 10.801 0 21.602 2.3984 32.398 8.3984 19.199 9.6016 31.199 21.602 36 37.199 4.8008 14.398 2.3984 31.199-6 46.801-32.398 60-80.398 100.8-138 117.6-21.602 7.1992-44.398 9.6016-66 9.6016z" fill="#4a285a"/>
</svg>