<svg width="1200pt" height="1200pt" version="1.1" viewBox="0 0 1200 1200" xmlns="http://www.w3.org/2000/svg">
 <path d="m572.9 853.82-159.08 159.08c-62.52 62.531-164.24 62.531-226.77 0.046875-62.531-62.578-62.531-164.29-0.011719-226.81l227.51-227.51c62.543-62.52 164.3-62.52 226.86 0 15.648 15.637 41.039 15.637 56.699-0.011718 15.672-15.66 15.672-41.039 0-56.699-93.816-93.77-246.45-93.77-340.23 0l-227.52 227.52c-93.793 93.77-93.781 246.38 0.011719 340.21 93.77 93.758 246.38 93.758 340.16 0l159.09-159.09c15.672-15.672 15.672-41.074 0-56.746-15.66-15.609-41.055-15.609-56.715 0.003907zm496.75-723.47c-93.77-93.77-246.37-93.77-340.18 0l-159.1 159.09c-15.66 15.648-15.66 41.039 0 56.699 15.66 15.66 41.039 15.66 56.711 0l159.09-159.09c62.531-62.496 164.27-62.508 226.78 0 62.52 62.531 62.543 164.27 0.011719 226.8l-227.52 227.52c-62.531 62.496-164.28 62.496-226.85 0-15.66-15.66-41.039-15.66-56.711 0-15.648 15.672-15.637 41.039 0.023437 56.699 93.793 93.77 246.43 93.77 340.22 0l227.52-227.52c93.805-93.789 93.781-246.41 0-340.2z" fill="#4a285a"/>
</svg>