<svg aria-hidden="true" width="1600" height="1600" viewBox="0 0 1200 1200" xmlns="http://www.w3.org/2000/svg"><path d="M474 963.6c-61.199 0-121.2-25.199-166.8-72-45.602-43.199-69.602-99.602-70.801-162 0-117.6 112.8-230.4 242.4-241.2h8.398c61.2 0 106.8 25.199 147.6 46.801 31.2 16.801 57.602 31.199 85.2 31.199 24 0 46.8-12 72-37.199 20.397-20.398 30-48 26.397-74.398-3.601-24-18-45.602-39.602-58.801-18-10.801-36-15.602-54-15.602-38.398 0-68.398 26.398-86.398 48-16.8 19.199-33.602 28.801-54 28.801-10.8 0-21.602-2.398-32.398-8.398-19.199-9.602-31.199-21.602-36-37.2-4.8-14.397-2.398-31.198 6-46.8 32.398-60 80.398-100.8 138-117.6 21.602-6 43.2-9.602 66-9.602 61.2 0 121.2 25.199 166.8 72 45.602 43.199 69.602 99.602 70.801 162 0 117.6-112.8 230.4-242.4 241.2H712.8c-61.199 0-106.8-25.199-147.6-46.801C534 649.199 507.597 634.801 480 634.801c-24 0-46.801 12-72 37.199-20.398 20.398-30 48-26.398 74.398 3.602 24 18 45.602 39.602 58.801 18 10.801 36 15.602 54 15.602 38.398 0 68.398-26.398 86.398-48 16.801-19.199 33.602-28.801 54-28.801 10.801 0 21.602 2.398 32.398 8.398 19.199 9.602 31.199 21.602 36 37.2 4.8 14.397 2.398 31.198-6 46.8-32.398 60-80.398 100.8-138 117.6-21.602 7.2-44.398 9.602-66 9.602z" fill="#4a285a"/></svg>