<svg title="twitter" width="45" height="40" viewBox="0 0 45 40" fill="none" xmlns="http://www.w3.org/2000/svg">
<rect opacity="0.1" width="44" height="40" rx="20" fill="#5A7184"/>
<path d="M28.677 17.083C29.302 16.6143 29.8645 16.0518 30.302 15.3955C29.7395 15.6455 29.0833 15.833 28.427 15.8955C29.1145 15.4893 29.6145 14.8643 29.8645 14.083C29.2395 14.458 28.5208 14.7393 27.802 14.8955C27.177 14.2393 26.3333 13.8643 25.3958 13.8643C23.5833 13.8643 22.1145 15.333 22.1145 17.1455C22.1145 17.3955 22.1458 17.6455 22.2083 17.8955C19.4895 17.7393 17.052 16.4268 15.427 14.458C15.1458 14.9268 14.9895 15.4893 14.9895 16.1143C14.9895 17.2393 15.552 18.2393 16.4583 18.833C15.927 18.8018 15.3958 18.6768 14.9583 18.4268V18.458C14.9583 20.0518 16.0833 21.3643 17.5833 21.6768C17.3333 21.7393 17.0208 21.8018 16.7395 21.8018C16.5208 21.8018 16.3333 21.7705 16.1145 21.7393C16.5208 23.0518 17.7395 23.9893 19.177 24.0205C18.052 24.8955 16.6458 25.4268 15.1145 25.4268C14.8333 25.4268 14.5833 25.3955 14.3333 25.3643C15.7708 26.3018 17.4895 26.833 19.3645 26.833C25.3958 26.833 28.677 21.8643 28.677 17.5205C28.677 17.3643 28.677 17.2393 28.677 17.083Z" fill="#5A7184"/>
</svg>