<svg data-name="Layer 1" xmlns="http://www.w3.org/2000/svg" width="956.58" height="472.468"><path fill="#e6e6e6" d="m303.916 321.285 1.252-1.558 107.625 86.437-1.252 1.559z"/><path fill="#e6e6e6" d="m303.906 407.685 107.636-87.462 1.262 1.553-107.636 87.462zM574.327 95.802l1.268-1.547 244.607 200.44-1.268 1.547z"/><path fill="#e6e6e6" d="M574.356 295.734 818.9 94.218l1.272 1.544-244.544 201.516z"/><path d="M892.5 0H7.5A7.503 7.503 0 0 0 0 7.5v457a7.503 7.503 0 0 0 7.5 7.5h885a7.53 7.53 0 0 0 6.03-3.06 6.567 6.567 0 0 0 .95-1.72 7.234 7.234 0 0 0 .52-2.72V7.5a7.503 7.503 0 0 0-7.5-7.5Zm4.5 464.5a4.507 4.507 0 0 1-4.5 4.5H7.5a4.507 4.507 0 0 1-4.5-4.5V7.5A4.507 4.507 0 0 1 7.5 3h885a4.507 4.507 0 0 1 4.5 4.5Z" fill="#e6e6e6"/><path fill="#e6e6e6" d="M3 38.33h897v2H3zM929.943 411.45a215.891 215.891 0 0 1-10.085 59.68c-.14.448-.288.89-.435 1.338h-37.636c.04-.402.08-.85.12-1.339 2.51-28.849 16.978-204.433-.32-234.46 1.512 2.436 51.273 83.114 48.356 174.781Z"/><path d="M927.119 471.13a45.48 45.48 0 0 1-.977 1.338h-28.234c.214-.382.462-.83.75-1.339 4.664-8.418 18.47-33.587 31.285-59.679 13.772-28.04 26.406-57.143 25.342-67.676.328 2.376 9.858 74.797-28.166 127.355ZM545.58 184.468h-238a7.008 7.008 0 0 1-7-7v-79a7.008 7.008 0 0 1 7-7h238a7.008 7.008 0 0 1 7 7v79a7.008 7.008 0 0 1-7 7Zm-238-91a5.006 5.006 0 0 0-5 5v79a5.006 5.006 0 0 0 5 5h238a5.006 5.006 0 0 0 5-5v-79a5.006 5.006 0 0 0-5-5ZM817.58 411.468h-238a7.008 7.008 0 0 1-7-7v-79a7.008 7.008 0 0 1 7-7h238a7.008 7.008 0 0 1 7 7v79a7.008 7.008 0 0 1-7 7ZM408.58 297.468h-101a7.008 7.008 0 0 1-7-7v-79a7.008 7.008 0 0 1 7-7h101a7.008 7.008 0 0 1 7 7v79a7.008 7.008 0 0 1-7 7Zm-101-91a5.006 5.006 0 0 0-5 5v79a5.006 5.006 0 0 0 5 5h101a5.006 5.006 0 0 0 5-5v-79a5.006 5.006 0 0 0-5-5ZM545.58 297.468h-101a7.008 7.008 0 0 1-7-7v-79a7.008 7.008 0 0 1 7-7h101a7.008 7.008 0 0 1 7 7v79a7.008 7.008 0 0 1-7 7Z" fill="#e6e6e6"/><path d="M408.58 410.468h-101a7.008 7.008 0 0 1-7-7v-79a7.008 7.008 0 0 1 7-7h101a7.008 7.008 0 0 1 7 7v79a7.008 7.008 0 0 1-7 7Zm-101-91a5.006 5.006 0 0 0-5 5v79a5.006 5.006 0 0 0 5 5h101a5.006 5.006 0 0 0 5-5v-79a5.006 5.006 0 0 0-5-5Z" fill="#3f3d56"/><path d="M545.58 410.468h-101a7.008 7.008 0 0 1-7-7v-79a7.008 7.008 0 0 1 7-7h101a7.008 7.008 0 0 1 7 7v79a7.008 7.008 0 0 1-7 7Zm-101-91a5.006 5.006 0 0 0-5 5v79a5.006 5.006 0 0 0 5 5h101a5.006 5.006 0 0 0 5-5v-79a5.006 5.006 0 0 0-5-5Z" fill="#e6e6e6"/><path d="M816.58 298.468h-238a7.008 7.008 0 0 1-7-7v-193a7.008 7.008 0 0 1 7-7h238a7.008 7.008 0 0 1 7 7v193a7.008 7.008 0 0 1-7 7Zm-238-205a5.006 5.006 0 0 0-5 5v193a5.006 5.006 0 0 0 5 5h238a5.006 5.006 0 0 0 5-5v-193a5.006 5.006 0 0 0-5-5Z" fill="#3f3d56"/><path d="M855.58 333.468h-238a7.008 7.008 0 0 1-7-7v-193a7.008 7.008 0 0 1 7-7h238a7.008 7.008 0 0 1 7 7v193a7.008 7.008 0 0 1-7 7Z" fill="#A78BFA"/><path d="M763.733 285.968H642.228a2.478 2.478 0 0 1-.454-.036l57.466-99.54a4.024 4.024 0 0 1 7.004 0l38.568 66.799 1.847 3.196Z" fill="#fff"/><path opacity=".2" style="isolation:isolate" d="M763.733 285.968h-41.485l20.365-29.581 1.466-2.131.733-1.065 1.848 3.196 17.073 29.581z"/><path d="M831.387 285.968H726.294l20.365-29.58 1.466-2.132 26.537-38.55a5.37 5.37 0 0 1 7.97-.476 4.796 4.796 0 0 1 .383.477Z" fill="#fff"/><circle cx="752.18" cy="191.968" r="18" fill="#fff"/><path fill="#3f3d56" d="M623.58 140.468h22v22h-22z"/><path d="M436.58 432.468h-101a7.008 7.008 0 0 1-7-7v-79a7.008 7.008 0 0 1 7-7h101a7.008 7.008 0 0 1 7 7v79a7.008 7.008 0 0 1-7 7Z" fill="#A78BFA"/><path d="M397.411 409.337h-50.705a1.034 1.034 0 0 1-.19-.015l23.982-41.539a1.68 1.68 0 0 1 2.923 0l16.094 27.876.771 1.334Z" fill="#fff"/><path opacity=".2" style="isolation:isolate" d="M397.411 409.337H380.1l8.498-12.344.612-.889.305-.445.771 1.334 7.125 12.344z"/><path d="M425.644 409.337h-43.856l8.498-12.344.612-.89 11.074-16.086a2.24 2.24 0 0 1 3.326-.2 2.001 2.001 0 0 1 .16.2Z" fill="#fff"/><circle cx="392.59" cy="370.11" r="7.512" fill="#fff"/><path fill="#3f3d56" d="M338.58 347.468h16v16h-16z"/><path data-name="Path 40" d="M100.198 142.853a5.947 5.947 0 0 0 0 11.892h107.086a5.947 5.947 0 0 0 .195-11.892h-.195ZM100.198 173.853a5.947 5.947 0 0 0 0 11.892h107.086a5.947 5.947 0 0 0 .195-11.892h-.195ZM100.198 204.853a5.947 5.947 0 0 0 0 11.892h107.086a5.947 5.947 0 0 0 .195-11.892h-.195ZM100.198 235.853a5.947 5.947 0 0 0 0 11.892h107.086a5.947 5.947 0 0 0 .195-11.892h-.195ZM100.198 266.853a5.947 5.947 0 0 0 0 11.892h107.086a5.947 5.947 0 0 0 .195-11.892h-.195ZM100.198 297.853a5.947 5.947 0 0 0 0 11.892h107.086a5.947 5.947 0 0 0 .195-11.892h-.195Z" fill="#e6e6e6"/><path d="M61.927 159.83a11 11 0 1 1 11-11 11.012 11.012 0 0 1-11 11Zm0-20a9 9 0 1 0 9 9 9.01 9.01 0 0 0-9-9ZM61.927 190.83a11 11 0 1 1 11-11 11.012 11.012 0 0 1-11 11Zm0-20a9 9 0 1 0 9 9 9.01 9.01 0 0 0-9-9ZM61.927 221.8a11 11 0 1 1 11-11 11.012 11.012 0 0 1-11 11Zm0-20a9 9 0 1 0 9 9 9.01 9.01 0 0 0-9-9ZM61.927 252.8a11 11 0 1 1 11-11 11.012 11.012 0 0 1-11 11Zm0-20a9 9 0 1 0 9 9 9.01 9.01 0 0 0-9-9ZM61.927 283.8a11 11 0 1 1 11-11 11.012 11.012 0 0 1-11 11Zm0-20a9 9 0 1 0 9 9 9.01 9.01 0 0 0-9-9ZM61.927 314.8a11 11 0 1 1 11-11 11.012 11.012 0 0 1-11 11Zm0-20a9 9 0 1 0 9 9 9.01 9.01 0 0 0-9-9Z" fill="#e6e6e6"/><circle cx="61.927" cy="148.831" r="5" fill="#A78BFA"/><circle cx="61.927" cy="210.831" r="5" fill="#A78BFA"/><circle cx="61.927" cy="241.831" r="5" fill="#A78BFA"/><path d="m507.568 266.574 1.62 12.155a8.53 8.53 0 0 0 10.979 7.021 8.53 8.53 0 0 0 4.522-12.96l-7.272-10.648-14.281-37.92 14.774-19.206-17.237-7.387-14.281 25.116Z" fill="#ffb8b8"/><path d="m496.734 198.614 24.623 9.357 6.012-16.7a9.991 9.991 0 0 0-4.475-12.076 9.991 9.991 0 0 0-12.76 2.49Z" fill="#A78BFA"/><path d="m479.497 432.044 32.256.786 18.96-123.903c17.989 32.763 32.255 76.428 44.816 125.087l28.07-6.402c-7.82-51.784-22.154-98.457-43.83-139.369l.986-28.07-44.815-6.895a20.332 20.332 0 0 0-3.595 2.156c-25.322 18.857-28.6 103.771-32.848 176.61Z" fill="#2f2e41"/><path d="m582.916 472.426 10.78-1.347-1.423-12.934c4.373 8.799 9.96 12.64 16.673 11.876a8.408 8.408 0 0 0 6.904-5.783 8.575 8.575 0 0 0 .24-.873 5.29 5.29 0 0 0-3.435-5.926c-8.053-3.21-10.252-17.813-12.01-33.275l-13.297 2.463.492 11.327c-7.582 10.98-7.802 21.968-4.924 34.472ZM486.392 472.426l10.78-1.347-1.423-12.934c4.373 8.799 9.96 12.64 16.673 11.876a8.408 8.408 0 0 0 6.904-5.783 8.575 8.575 0 0 0 .24-.873 5.29 5.29 0 0 0-3.435-5.926c-8.053-3.21-10.252-17.813-12.01-33.275l-13.297 2.463.492 11.327c-7.582 10.98-7.802 21.968-4.924 34.472Z" fill="#2f2e41"/><circle cx="545.794" cy="157.163" r="17.468" fill="#ffb8b8"/><path d="m511.508 190.734 23.146-3.94 11.819-19.698-16.744-10.835c-3.275 11.331-9.738 22.845-18.221 34.473Z" fill="#ffb8b8"/><path d="m513.604 254.983 46.658 11.099c3.594-29.206 2.378-54.756-6.16-74.739a21.775 21.775 0 0 0-14.524-12.428l-19.698-.985a22.68 22.68 0 0 0-12.497 24.12c7.476 19.708 12.62 38.525 6.22 52.933Z" fill="#A78BFA"/><path d="m598.803 246.7 10.888 5.64a8.53 8.53 0 0 0 12.047-4.971 8.53 8.53 0 0 0-8.027-11.135l-12.893-.146-39.258-10.035-7.268-23.116-15.934 9.889 12.393 26.1Z" fill="#ffb8b8"/><path d="m536.907 216.619 21.782-14.813-10.237-14.498a9.991 9.991 0 0 0-12.46-3.257 9.991 9.991 0 0 0-5.273 11.883Z" fill="#A78BFA"/><path d="M541.794 157c6.7-.952 12.405-2.677 19.103-3.629 1.652-.235 3.549-.635 4.316-2.116.708-1.365.11-3.03-.63-4.378a22.367 22.367 0 0 0-39.034-.332c-1.767 3.095-2.806 6.627-5.048 9.398a33.323 33.323 0 0 1-4.968 4.527 68.356 68.356 0 0 0-24.244 44.75 28.631 28.631 0 0 0 .248 9.59 13.395 13.395 0 0 0 4.993 7.997c3.882 2.749 9.266 2.519 13.635.64 8.368-3.596 13.591-12.423 15.106-21.404s-.125-18.178-2.152-27.058c-.74-3.24-1.529-6.652-.58-9.838 1.317-4.426 7.428 2.62 11.376.225 1.647-1 1.585-11.861 3.505-11.701s3.77 2.15 3.024 3.925Z" fill="#2f2e41"/><path d="M523.95 165.05a2.217 2.217 0 0 0 .692-3.057l-2.822-4.472a2.216 2.216 0 0 0-3.748 2.366l2.822 4.472a2.219 2.219 0 0 0 3.057.69Z" fill="#A78BFA"/><circle cx="27.79" cy="21.734" r="8.5" fill="#e6e6e6"/><circle cx="52.44" cy="21.734" r="8.5" fill="#e6e6e6"/><circle cx="77.09" cy="21.734" r="8.5" fill="#e6e6e6"/></svg>