<?xml version="1.0" standalone="no"?>
<!DOCTYPE svg PUBLIC "-//W3C//DTD SVG 20010904//EN"
 "http://www.w3.org/TR/2001/REC-SVG-20010904/DTD/svg10.dtd">
<svg version="1.0" xmlns="http://www.w3.org/2000/svg"
 width="260.000000pt" height="260.000000pt" viewBox="0 0 260.000000 260.000000"
 preserveAspectRatio="xMidYMid meet">
<metadata>
Created by potrace 1.14, written by Peter Selinger 2001-2017
</metadata>
<g transform="translate(0.000000,260.000000) scale(0.100000,-0.100000)"
fill="#000000" stroke="none">
<path d="M0 1300 l0 -1300 1300 0 1300 0 0 1300 0 1300 -1300 0 -1300 0 0
-1300z m1570 580 c70 -11 227 -58 235 -70 8 -13 -83 -215 -97 -213 -7 1 -47
14 -88 29 -64 23 -92 27 -185 28 -92 0 -119 -4 -168 -23 -169 -67 -260 -270
-230 -512 20 -156 83 -257 191 -307 44 -20 70 -24 141 -24 48 0 106 3 129 7
l42 7 0 134 0 134 -120 0 -120 0 0 115 0 115 255 0 255 0 0 -338 0 -338 -87
-22 c-133 -33 -215 -44 -358 -45 -147 -1 -220 14 -324 64 -122 60 -224 194
-267 354 -25 93 -30 323 -10 426 50 247 220 416 471 469 101 21 237 25 335 10z"/>
</g>
</svg>
