<svg width="49" height="49" viewBox="0 0 49 49" fill="none" xmlns="http://www.w3.org/2000/svg">
<g opacity="0.2">
<rect width="48" height="48" rx="16" stroke="#4A275A"/>
</g>
<path fill-rule="evenodd" clip-rule="evenodd" d="M13.92 12.2402H27.36C28.2878 12.2402 29.04 12.9924 29.04 13.9202V27.3602C29.04 28.2881 28.2878 29.0402 27.36 29.0402H13.92C12.9922 29.0402 12.24 28.2881 12.24 27.3602V13.9202C12.24 12.9924 12.9922 12.2402 13.92 12.2402ZM33.52 18.9602H34.08C35.0078 18.9602 35.76 19.7124 35.76 20.6402V34.0802C35.76 35.0081 35.0078 35.7602 34.08 35.7602H20.64C19.7122 35.7602 18.96 35.0081 18.96 34.0802V33.5202H30.72C32.2664 33.5202 33.52 32.2666 33.52 30.7202V18.9602Z" fill="#4A275A"/>
<path opacity="0.3" fill-rule="evenodd" clip-rule="evenodd" d="M30.1601 15.5996H30.7201C31.6479 15.5996 32.4001 16.3518 32.4001 17.2796V30.7196C32.4001 31.6474 31.6479 32.3996 30.7201 32.3996H17.2801C16.3523 32.3996 15.6001 31.6474 15.6001 30.7196V30.1596H27.3601C28.9065 30.1596 30.1601 28.906 30.1601 27.3596V15.5996Z" fill="#4A275A"/>
</svg>
