<svg width="49" height="49" viewBox="0 0 49 49" fill="none" xmlns="http://www.w3.org/2000/svg">
<g opacity="0.2">
<rect width="48" height="48" rx="16" stroke="#4A275A"/>
</g>
<path fill-rule="evenodd" clip-rule="evenodd" d="M34.2703 15.9135L24.1903 12.2735C24.0674 12.2291 23.9328 12.2291 23.8099 12.2735L13.7299 15.9135C13.508 15.9937 13.3601 16.2043 13.3601 16.4402V24.0002C13.3601 29.9369 16.9056 33.8763 23.855 35.7411C23.9513 35.7669 24.0528 35.7666 24.1489 35.7401C31.096 33.8251 34.6401 29.8871 34.6401 24.0002V16.4402C34.6401 16.2043 34.4922 15.9937 34.2703 15.9135ZM20.1341 23.0207C20.3581 22.8075 20.7126 22.8163 20.9258 23.0403L23.1912 25.4211L27.9484 20.2607C28.158 20.0333 28.5123 20.0189 28.7397 20.2285C28.9671 20.4381 28.9815 20.7924 28.7718 21.0198L23.6094 26.6198C23.39 26.8578 23.0151 26.8608 22.792 26.6263L20.1144 23.8124C19.9012 23.5883 19.91 23.2339 20.1341 23.0207Z" fill="#4A275A"/>
</svg>
