<svg width="49" height="49" viewBox="0 0 49 49" fill="none" xmlns="http://www.w3.org/2000/svg">
<g opacity="0.2">
<rect width="48" height="48" rx="16" stroke="#4A275A"/>
</g>
<path fill-rule="evenodd" clip-rule="evenodd" d="M13.92 12.2402H20.64C21.5678 12.2402 22.32 12.9924 22.32 13.9202V20.6402C22.32 21.5681 21.5678 22.3202 20.64 22.3202H13.92C12.9922 22.3202 12.24 21.5681 12.24 20.6402V13.9202C12.24 12.9924 12.9922 12.2402 13.92 12.2402ZM27.36 25.6802H34.08C35.0078 25.6802 35.76 26.4324 35.76 27.3602V34.0802C35.76 35.0081 35.0078 35.7602 34.08 35.7602H27.36C26.4322 35.7602 25.68 35.0081 25.68 34.0802V27.3602C25.68 26.4324 26.4322 25.6802 27.36 25.6802Z" fill="#4A275A"/>
<path opacity="0.3" fill-rule="evenodd" clip-rule="evenodd" d="M27.36 12.2402H34.08C35.0078 12.2402 35.76 12.9924 35.76 13.9202V20.6402C35.76 21.5681 35.0078 22.3202 34.08 22.3202H27.36C26.4322 22.3202 25.68 21.5681 25.68 20.6402V13.9202C25.68 12.9924 26.4322 12.2402 27.36 12.2402ZM13.92 25.6802H20.64C21.5678 25.6802 22.32 26.4324 22.32 27.3602V34.0802C22.32 35.0081 21.5678 35.7602 20.64 35.7602H13.92C12.9922 35.7602 12.24 35.0081 12.24 34.0802V27.3602C12.24 26.4324 12.9922 25.6802 13.92 25.6802Z" fill="#4A275A"/>
</svg>
