<svg width="49" height="49" viewBox="0 0 49 49" fill="none" xmlns="http://www.w3.org/2000/svg">
<g opacity="0.2">
<rect width="48" height="48" rx="16" stroke="#4A275A"/>
</g>
<path opacity="0.3" fill-rule="evenodd" clip-rule="evenodd" d="M23.552 29.04C22.253 29.04 21.2 30.0931 21.2 31.392V34.976C21.2 35.409 21.551 35.76 21.984 35.76H26.016C26.4489 35.76 26.8 35.409 26.8 34.976V31.392C26.8 30.0931 25.7469 29.04 24.448 29.04H23.552Z" fill="#4A275A"/>
<path fill-rule="evenodd" clip-rule="evenodd" d="M27.92 35.0685V31.3791C27.92 29.4688 26.1738 27.9202 24.2635 27.9202H23.7365C21.8262 27.9202 20.08 29.4688 20.08 31.3791V35.0685C20.08 35.311 20.1216 35.5439 20.1981 35.7602H18.4659C16.5556 35.7602 15.0071 34.2117 15.0071 32.3014V21.72L13.3873 23.1373C13.0998 23.3889 12.6627 23.3598 12.4112 23.0722C12.1596 22.7847 12.1887 22.3477 12.4762 22.0961L23.5445 12.4114C23.8053 12.1832 24.1947 12.1832 24.4555 12.4114L35.5237 22.0961C35.8113 22.3477 35.8404 22.7847 35.5888 23.0722C35.3372 23.3598 34.9002 23.3889 34.6127 23.1373L32.9929 21.72V32.3014C32.9929 34.2117 31.4444 35.7602 29.5341 35.7602H27.8019C27.8784 35.5439 27.92 35.311 27.92 35.0685Z" fill="#4A275A"/>
</svg>
