<svg width="49" height="49" viewBox="0 0 49 49" fill="none" xmlns="http://www.w3.org/2000/svg">
<g opacity="0.2">
<rect width="48" height="48" rx="16" stroke="#4A275A"/>
</g>
<path fill-rule="evenodd" clip-rule="evenodd" d="M18.0447 20.9915C19.5166 18.8998 20.4353 16.4996 20.8039 13.7824C20.839 13.5235 21.0223 13.3083 21.2738 13.2305C23.8086 12.446 25.2497 13.6926 25.2259 16.535C25.2212 17.0867 25.1958 17.5771 25.1416 18.3272C25.0205 20.0025 25.0301 20.4597 25.2177 20.7674C25.398 21.0631 25.9834 21.1641 27.3678 20.9012C27.8046 20.8183 28.2428 20.7243 28.7282 20.6114C28.9425 20.5615 30.4858 20.1849 30.8803 20.0998C31.6328 19.9373 32.1727 19.8685 32.6475 19.8976C33.9338 19.9765 34.6163 20.8047 34.7343 22.3913C34.942 25.1855 34.3002 30.798 33.6599 32.8653C33.0057 34.9778 31.8647 35.7752 29.1258 35.8233C27.3649 35.8543 24.6566 35.8543 20.9882 35.8232C20.0518 35.8015 19.2031 35.6201 18.4483 35.2811C18.6602 34.8424 18.7788 34.3509 18.7788 33.832V23.08C18.7788 22.2907 18.5043 21.5649 18.0447 20.9915Z" fill="#4A275A"/>
<path opacity="0.3" fill-rule="evenodd" clip-rule="evenodd" d="M14.0337 21.0645C12.9105 21.0645 12 21.967 12 23.0805V33.8325C12 34.9459 12.9105 35.8485 14.0337 35.8485H15.3895C16.5126 35.8485 17.4232 34.9459 17.4232 33.8325V23.0805C17.4232 21.967 16.5126 21.0645 15.3895 21.0645H14.0337Z" fill="#4A275A"/>
</svg>
